<?xml version="1.0" standalone="no"?>
<!DOCTYPE svg PUBLIC "-//W3C//DTD SVG 20010904//EN"
 "http://www.w3.org/TR/2001/REC-SVG-20010904/DTD/svg10.dtd">
<svg version="1.0" xmlns="http://www.w3.org/2000/svg"
 width="860.000000pt" height="860.000000pt" viewBox="0 0 860.000000 860.000000"
 preserveAspectRatio="xMidYMid meet">

<g transform="translate(0.000000,860.000000) scale(0.100000,-0.100000)"
fill="#000000" stroke="none">
<path d="M4145 7289 c-320 -27 -770 -175 -1138 -375 -154 -83 -351 -213 -488
-320 -109 -86 -384 -342 -429 -400 -54 -71 -138 -170 -154 -183 -26 -22 -92 2
-116 42 -26 41 -25 42 10 57 47 19 37 76 -19 105 -16 8 -43 28 -60 45 -17 17
-36 28 -42 25 -6 -4 -19 -27 -29 -50 -14 -33 -27 -46 -54 -56 -37 -13 -48 -29
-20 -29 9 0 31 7 49 16 26 12 34 23 39 55 7 45 30 53 47 16 6 -13 29 -32 52
-43 49 -22 60 -59 17 -59 -23 -1 -25 -4 -23 -45 2 -34 9 -51 33 -74 29 -29 35
-31 103 -30 76 1 110 13 166 60 35 29 40 60 14 79 -16 12 -15 15 14 32 24 13
34 27 38 55 4 21 10 38 13 38 4 0 20 -12 36 -26 29 -25 30 -33 11 -100 -5 -14
2 -31 21 -53 21 -25 25 -39 21 -65 -5 -29 -2 -35 16 -40 39 -10 52 -7 127 39
82 49 104 52 191 30 55 -14 65 -14 138 4 43 10 91 16 105 14 42 -8 131 -122
110 -142 -3 -3 -13 4 -21 17 -28 41 -83 23 -83 -28 0 -30 37 -68 90 -95 61
-31 103 -69 121 -110 15 -32 19 -35 19 -16 0 15 -17 40 -45 69 -25 25 -43 47
-41 49 2 3 30 -1 61 -7 93 -19 254 8 411 70 99 40 137 39 175 -2 16 -18 29
-36 29 -40 0 -5 15 -17 33 -28 39 -24 103 -26 154 -5 30 13 43 13 65 4 28 -12
37 -33 17 -44 -19 -12 -30 -55 -19 -76 27 -49 130 -65 200 -29 47 24 68 25 98
4 30 -21 28 -31 -8 -26 -25 4 -31 0 -40 -23 -31 -82 9 -155 86 -155 41 0 64
-14 64 -38 0 -11 -9 -13 -36 -9 -34 6 -36 5 -29 -16 4 -12 9 -35 11 -52 l5
-30 -17 30 c-30 53 -58 58 -59 9 0 -32 -26 -44 -51 -23 -14 11 -13 15 8 31
l23 18 -29 26 c-24 21 -36 25 -65 20 -20 -3 -51 -6 -68 -6 -25 0 -33 -4 -33
-17 1 -30 33 -61 98 -96 72 -37 98 -70 88 -111 -9 -36 -22 -33 -36 9 -12 37
-51 56 -98 47 -35 -7 -58 -47 -43 -78 16 -35 14 -79 -4 -94 -13 -11 -15 -7
-15 25 0 27 -7 44 -29 66 -33 33 -71 37 -126 15 -29 -13 -35 -20 -35 -46 0
-17 6 -41 14 -53 12 -18 13 -30 4 -64 -14 -49 -3 -69 46 -81 39 -10 49 -42 12
-42 -30 0 -50 -19 -77 -71 -10 -21 -24 -39 -29 -39 -6 0 -10 23 -10 50 0 45
-4 55 -35 86 -34 34 -35 36 -20 64 20 38 19 58 -5 98 -19 31 -22 32 -88 32
-78 0 -147 -18 -191 -49 -41 -29 -39 -15 5 41 33 44 35 48 25 85 -20 75 -81
108 -178 98 -35 -4 -63 -5 -63 -2 0 3 12 30 26 61 32 71 60 77 70 16 4 -22 10
-40 13 -40 12 0 36 23 65 62 42 58 107 63 127 11 8 -21 12 -24 22 -14 18 18
-11 63 -48 73 -46 12 -92 -8 -123 -54 l-26 -40 -7 26 c-12 45 -28 56 -81 56
-45 0 -48 1 -38 19 28 53 1 101 -57 101 -28 0 -42 -8 -68 -36 -27 -29 -34 -32
-39 -18 -4 11 -13 14 -30 10 -37 -9 -39 7 -6 39 42 40 38 77 -13 133 -30 33
-47 28 -47 -14 0 -31 3 -35 20 -29 15 5 23 0 31 -19 10 -22 8 -30 -20 -67 -34
-48 -38 -59 -17 -59 8 0 37 -12 64 -26 53 -27 77 -25 69 7 -10 39 67 66 94 33
11 -14 10 -21 -4 -46 -23 -40 -21 -58 6 -58 49 0 50 -13 7 -85 -22 -38 -36
-73 -31 -78 4 -4 28 -3 52 2 93 22 158 9 178 -35 11 -26 1 -107 -19 -144 -16
-30 -34 -24 -74 25 -31 37 -43 45 -71 45 -19 0 -37 -4 -40 -10 -3 -5 -34 -10
-68 -11 l-62 -1 35 -15 c41 -18 94 -12 122 14 20 18 21 17 59 -26 62 -69 68
-127 9 -77 -40 33 -58 33 -66 -1 -12 -56 -13 -56 -43 -24 -34 36 -54 38 -98
11 -66 -40 -28 -112 64 -123 28 -3 71 -16 95 -28 l43 -23 -52 -9 c-53 -8 -53
-9 -53 -45 0 -20 -5 -44 -10 -52 -7 -12 -12 -8 -21 18 -14 41 -43 42 -84 2
l-30 -29 -22 39 c-23 38 -23 39 -3 45 22 7 22 10 11 39 -6 17 -10 15 -34 -14
-15 -17 -27 -37 -27 -45 0 -7 -7 -18 -16 -26 -13 -11 -14 -9 -9 13 14 54 -43
115 -94 101 -18 -5 -21 -1 -21 24 0 62 -80 87 -119 37 -22 -28 -29 -108 -11
-119 20 -12 42 -67 36 -91 -8 -29 -26 -32 -26 -4 0 27 -43 70 -69 70 -27 0
-79 -48 -86 -80 -4 -20 1 -29 29 -47 19 -12 47 -38 62 -58 22 -29 25 -38 14
-48 -8 -7 -14 -8 -16 -2 -19 48 -31 60 -64 63 -20 2 -44 -4 -55 -12 -17 -13
-18 -18 -7 -36 14 -23 8 -40 -13 -40 -8 0 -16 19 -20 52 -9 67 -55 118 -105
118 -32 0 -100 -34 -100 -49 0 -11 -52 -62 -57 -57 -12 12 34 70 92 116 36 29
72 65 80 81 18 33 19 71 4 86 -7 7 -1 14 21 23 41 17 70 56 70 92 0 42 -34 99
-77 128 -32 22 -48 25 -117 25 -68 -1 -89 -5 -133 -28 -102 -53 -163 -140
-230 -332 -32 -93 -38 -105 -41 -77 -4 39 15 101 71 232 51 120 55 181 13 216
-34 30 -92 32 -145 4 -83 -42 -199 -207 -243 -345 -22 -70 -38 -95 -38 -59 0
8 -22 39 -50 68 -55 58 -65 97 -31 116 30 16 52 12 79 -12 l25 -23 -7 35 c-13
69 -89 110 -141 76 -53 -35 -158 -8 -135 34 6 11 30 33 55 50 49 34 64 68 46
106 -12 27 -5 31 18 9 31 -27 60 2 127 129 34 65 64 133 67 150 8 52 73 152
107 166 40 16 106 7 133 -19 12 -11 35 -25 51 -31 27 -10 31 -8 66 30 39 42
80 53 112 28 32 -26 32 -56 -1 -89 -17 -17 -31 -33 -31 -37 0 -3 10 -16 22
-29 19 -20 20 -27 10 -41 -45 -63 -41 -96 10 -81 50 14 95 11 102 -7 12 -31 6
-72 -15 -98 -12 -15 -18 -30 -15 -34 13 -12 41 15 69 66 30 55 56 76 81 66 12
-4 13 -11 5 -31 -7 -19 -5 -37 7 -69 21 -56 40 -56 47 -1 7 52 52 97 98 97 40
0 34 24 -8 28 -23 2 -37 -5 -66 -35 -21 -20 -37 -41 -37 -45 0 -4 -4 -8 -10
-8 -5 0 -10 17 -10 38 0 43 -14 62 -47 62 -15 0 -28 -10 -39 -32 l-17 -33 -13
44 c-7 24 -18 47 -25 51 -6 4 -32 -1 -56 -12 -51 -23 -62 -19 -39 14 20 28 20
47 1 68 -14 16 -13 20 14 49 27 29 29 35 19 64 -16 49 -52 77 -100 77 -35 0
-46 -6 -78 -40 -34 -37 -38 -39 -51 -24 -21 26 -73 44 -124 44 -50 0 -89 -16
-119 -49 -17 -18 -21 -19 -35 -7 -14 12 -22 12 -56 1 -36 -13 -71 -43 -61 -53
3 -2 18 6 34 18 16 12 38 20 48 18 30 -6 23 -69 -10 -109 -15 -18 -54 -86 -87
-151 -58 -115 -71 -132 -82 -104 -7 17 -106 56 -124 49 -7 -3 -13 -11 -13 -19
0 -10 12 -14 40 -14 34 0 42 -4 55 -30 17 -32 20 -86 6 -95 -5 -3 -34 -2 -64
1 -52 6 -56 8 -70 45 -18 45 -46 51 -87 20 -23 -18 -24 -22 -12 -55 7 -20 10
-40 7 -46 -10 -16 -75 -12 -81 5 -10 25 -35 17 -47 -14 -6 -16 -29 -39 -53
-54 -63 -38 -80 -68 -65 -117 13 -44 35 -53 45 -17 9 33 8 36 -14 30 -30 -8
-25 23 8 55 74 70 105 87 161 87 66 0 82 17 63 67 -11 29 -10 35 5 46 27 19
45 11 58 -28 11 -33 15 -35 61 -40 l49 -5 -37 -29 c-21 -15 -38 -33 -38 -38 0
-6 15 -25 34 -44 38 -38 61 -41 129 -18 40 14 49 14 73 1 l28 -15 -36 -15
c-46 -19 -72 -59 -71 -105 1 -29 10 -44 42 -75 23 -21 41 -40 41 -42 0 -2 -19
-5 -42 -7 -55 -4 -78 -35 -85 -116 -3 -34 -8 -62 -11 -62 -3 0 -13 7 -22 15
-33 30 -123 -15 -170 -85 l-27 -42 -7 36 c-6 33 -9 36 -34 30 -50 -12 -83 -35
-97 -67 l-14 -32 -1 28 c0 60 58 127 111 127 16 0 29 5 29 10 0 22 -34 22 -76
1 -54 -26 -54 -26 -54 -1 0 29 38 58 86 66 25 3 44 12 44 19 0 19 38 48 55 42
19 -8 20 -46 0 -53 -29 -12 -15 -24 28 -24 57 0 102 29 111 70 16 84 1 137
-54 184 -36 30 -64 32 -119 10 -48 -19 -71 -51 -71 -99 0 -40 -17 -47 -26 -11
-7 31 1 58 32 104 37 54 40 80 15 105 -30 31 -102 30 -133 0 -27 -28 -18 -41
14 -19 32 23 85 21 98 -3 16 -31 12 -45 -25 -87 -27 -31 -36 -36 -44 -25 -6
10 -17 11 -37 6 -24 -7 -26 -9 -9 -13 38 -9 61 -32 72 -76 12 -41 34 -63 54
-51 5 3 6 25 3 48 -6 40 -4 45 30 75 28 24 46 32 75 32 56 0 63 -14 45 -90
-24 -98 -21 -93 -46 -76 -30 21 -32 21 -70 -12 -18 -16 -52 -34 -76 -41 -62
-17 -82 -59 -70 -141 1 -8 -2 -32 -6 -53 -13 -57 28 -137 55 -110 8 8 6 19 -6
37 -17 25 -16 26 14 56 40 40 75 38 79 -5 7 -58 38 -74 45 -22 2 17 5 -17 5
-78 3 -165 35 -415 68 -534 20 -69 10 -81 -45 -56 -46 20 -103 16 -132 -11
-36 -33 -16 -67 23 -40 39 28 74 20 103 -21 28 -42 32 -84 10 -103 -16 -14
-21 -50 -6 -50 12 0 31 56 31 93 0 37 -31 89 -65 107 -28 15 -35 36 -8 26 9
-4 38 -14 64 -22 47 -16 48 -16 69 -87 12 -40 34 -107 51 -150 16 -43 29 -81
29 -83 0 -2 -12 -4 -27 -5 -27 -1 -27 -1 5 -12 29 -9 40 -23 78 -100 24 -50
42 -92 40 -94 -2 -2 -20 6 -40 18 -79 46 -121 -8 -73 -93 41 -73 36 -75 -52
-18 -66 43 -81 48 -81 27 0 -8 18 -22 40 -32 22 -10 40 -21 40 -25 0 -3 -19
-10 -42 -16 -50 -11 -60 -29 -21 -38 21 -6 24 -9 12 -17 -22 -14 -65 -11 -98
8 -25 15 -35 16 -62 6 -24 -9 -36 -10 -46 -2 -9 8 -13 8 -13 0 0 -6 12 -17 28
-23 15 -7 35 -18 45 -26 21 -19 23 -75 2 -92 -17 -14 -35 -8 -94 35 -39 29
-59 31 -87 10 -19 -14 -19 -15 5 -34 l24 -19 -21 -6 c-22 -7 -27 -17 -15 -29
3 -4 17 3 30 15 l23 22 40 -39 c45 -44 49 -66 20 -110 -24 -36 -25 -68 -4
-100 19 -30 34 -24 34 14 0 35 17 51 52 51 20 0 31 -7 38 -22 7 -18 9 -19 9
-5 1 9 6 17 12 17 15 0 5 -76 -15 -125 -17 -40 -41 -53 -67 -37 -48 30 -80 2
-54 -48 21 -40 19 -58 -10 -113 -23 -42 -24 -51 -13 -75 17 -34 42 -35 46 -2
8 54 42 60 91 16 l24 -21 -18 28 c-10 15 -25 32 -34 36 -25 14 -61 -6 -76 -41
-11 -28 -15 -30 -21 -15 -4 11 2 38 17 68 21 46 22 55 11 106 -6 31 -10 59 -8
61 3 2 19 -4 36 -14 28 -17 33 -17 58 -4 21 12 30 29 42 75 8 33 18 65 23 72
10 16 -53 63 -86 63 -15 0 -41 -13 -62 -31 -33 -29 -35 -30 -35 -9 0 12 11 36
25 54 14 18 25 43 25 55 0 27 -74 109 -102 113 -35 5 -34 28 1 28 18 0 31 -5
31 -12 0 -13 70 -58 89 -58 20 0 51 40 51 66 0 15 -9 42 -21 60 -24 40 -8 47
33 15 18 -15 34 -18 65 -14 35 5 45 1 74 -25 28 -25 32 -33 21 -44 -10 -10
-16 -10 -30 0 -50 36 -68 24 -28 -17 21 -22 43 -32 90 -40 78 -14 146 -14 146
-1 0 6 -17 10 -37 10 -55 0 -113 11 -113 21 0 5 26 9 58 9 31 0 64 4 72 10 9
5 19 5 27 -2 17 -13 17 -70 1 -87 -11 -10 -9 -12 7 -9 29 5 32 82 5 169 -18
61 -23 69 -45 69 -30 0 -32 11 -7 33 22 20 61 22 97 5 28 -13 30 -20 12 -49
-29 -49 96 -96 136 -51 23 26 22 94 -1 115 -25 22 -39 21 -45 -3 -6 -24 -23
-26 -31 -4 -8 20 18 41 61 50 17 3 41 17 54 30 29 31 49 31 49 -1 0 -20 5 -25
23 -25 34 0 37 -7 19 -51 -12 -32 -13 -46 -3 -78 14 -47 41 -57 91 -33 31 15
35 21 34 54 -1 33 2 38 22 38 46 0 54 -9 54 -62 0 -41 5 -54 29 -79 18 -17 40
-29 56 -29 58 0 105 -47 105 -105 0 -28 -3 -29 -30 -15 -15 8 -23 4 -44 -22
-24 -31 -26 -32 -39 -14 -18 24 -65 15 -97 -20 -29 -29 -21 -30 32 -3 42 21
54 18 60 -16 4 -24 48 -34 48 -11 0 24 22 66 34 66 7 0 19 -9 29 -20 9 -11 24
-20 32 -20 18 0 19 5 4 32 -11 20 -9 21 22 14 19 -3 59 -24 89 -45 84 -59 137
-83 158 -72 9 5 43 14 74 21 57 11 79 27 135 99 18 22 21 22 61 10 72 -21 126
22 67 54 -25 13 -26 13 -7 30 15 14 25 16 46 7 41 -15 62 -12 93 14 24 21 26
26 15 50 -9 20 -19 26 -42 26 -23 0 -30 4 -30 20 0 16 7 20 34 20 59 0 83 -15
92 -56 5 -20 20 -45 34 -55 24 -18 27 -18 77 -2 42 13 57 14 78 5 35 -16 35
-45 -1 -32 -35 14 -42 13 -49 -9 -3 -10 -17 -22 -31 -25 -32 -9 -50 -46 -35
-75 15 -28 40 -27 81 4 19 14 46 25 60 25 14 0 41 -11 60 -25 19 -14 40 -25
47 -25 18 0 53 -37 53 -56 0 -13 -5 -12 -26 5 -30 23 -46 26 -74 11 -16 -9
-18 -15 -10 -36 10 -24 9 -25 -22 -22 -29 3 -33 0 -33 -22 0 -18 9 -30 36 -44
36 -19 36 -19 66 2 26 18 41 21 114 18 80 -3 85 -4 126 -40 47 -41 50 -69 4
-35 -27 20 -30 20 -54 4 -32 -21 -52 -51 -61 -93 l-8 -32 74 0 c65 0 80 -4
121 -30 51 -32 66 -60 20 -36 -42 21 -90 29 -110 17 -16 -9 -13 -12 20 -26 20
-8 37 -19 37 -23 0 -16 266 -166 385 -218 411 -177 1131 -334 1536 -334 480 0
943 175 1003 379 23 79 21 98 -18 137 -55 55 -90 45 -152 -41 -31 -43 -38 -26
-13 29 35 81 10 126 -71 126 -18 0 -41 -11 -60 -27 -26 -24 -31 -36 -32 -80
-3 -58 -12 -68 -23 -26 -9 38 -23 53 -50 53 -24 0 -55 -28 -55 -50 0 -7 -10
-32 -21 -55 -31 -61 -21 -90 31 -99 48 -8 53 -25 8 -24 -18 0 -63 -2 -100 -5
l-67 -4 25 32 c13 18 24 42 24 55 0 34 -47 80 -82 80 -38 0 -72 -34 -168 -170
-45 -63 -85 -116 -89 -118 -5 -1 -13 3 -19 11 -9 10 -5 25 14 62 28 52 28 82
0 148 -10 24 -22 37 -34 37 -25 0 -72 -37 -72 -56 0 -20 -77 -120 -129 -167
-51 -46 -139 -91 -222 -112 -96 -25 -329 -22 -329 4 0 5 53 11 118 14 132 6
248 33 325 74 44 24 52 33 55 60 4 40 -20 77 -58 93 -37 15 -56 3 -69 -44 l-8
-31 -13 27 c-20 42 -2 92 33 96 16 2 39 -4 52 -12 73 -48 176 32 150 115 -6
17 -13 20 -41 17 -27 -3 -34 0 -34 13 0 29 23 40 59 28 25 -9 38 -23 52 -55
10 -24 22 -44 27 -44 16 0 41 25 42 45 4 42 -1 53 -32 66 l-31 13 38 16 c29
12 42 25 50 50 10 29 18 36 61 47 36 9 58 10 82 2 26 -9 38 -8 58 6 51 33 44
84 -17 115 -47 25 -50 51 -7 83 34 25 81 15 111 -25 26 -35 14 -48 -16 -20
-24 23 -61 29 -72 12 -3 -5 -2 -10 3 -10 5 0 26 -25 46 -55 45 -68 70 -82 110
-61 26 13 33 13 57 1 15 -8 30 -24 34 -35 5 -15 15 -20 45 -20 48 0 76 22 109
90 35 71 55 77 127 40 31 -17 65 -30 76 -30 30 0 88 63 89 97 2 42 -1 56 -17
74 -19 21 -18 49 2 49 9 0 31 -15 50 -34 30 -30 34 -40 34 -85 l0 -51 43 0
c37 0 46 -4 55 -25 11 -23 17 -25 74 -25 60 0 62 -1 104 -46 49 -53 63 -82 43
-95 -26 -17 -92 -30 -116 -24 -14 3 -34 3 -46 -1 -22 -7 -22 -8 3 -15 45 -13
121 -9 156 7 19 9 55 41 81 70 30 36 53 54 68 54 52 0 148 152 160 255 9 65
-15 126 -67 171 -27 23 -33 35 -25 43 19 19 35 12 68 -29 l32 -39 20 25 20 26
21 -27 c20 -25 26 -27 63 -21 77 14 103 69 69 151 l-15 35 43 35 c29 23 53 35
74 35 17 0 53 5 81 12 38 8 54 9 63 0 8 -8 3 -13 -18 -18 -71 -17 -88 -80 -31
-114 42 -26 55 -25 83 5 34 37 70 42 120 15 24 -12 49 -20 56 -17 16 5 48 -10
48 -23 0 -6 -9 -10 -20 -10 -27 0 -26 -16 2 -23 27 -8 38 -1 38 23 0 23 -45
60 -74 60 -11 1 -32 7 -46 15 -38 21 -76 18 -122 -11 -33 -21 -47 -25 -67 -18
-29 11 -39 38 -21 59 6 8 32 17 56 21 49 7 53 15 23 45 -22 22 -35 22 -155 3
-23 -3 -44 -2 -47 3 -3 5 16 52 44 105 97 189 164 396 223 690 64 319 58 509
-19 663 -93 183 -109 205 -226 313 -63 57 -125 111 -139 120 -60 38 -70 53
-64 96 l6 41 -16 -29 c-15 -27 -15 -33 0 -72 17 -44 44 -78 44 -55 0 49 139
-94 195 -201 20 -37 39 -68 42 -68 6 0 -2 44 -13 74 -14 37 34 -2 62 -51 22
-36 28 -62 32 -125 5 -84 19 -94 24 -18 l3 45 21 -40 c38 -71 65 -171 73 -267
l7 -93 -83 -115 c-57 -79 -83 -124 -83 -143 0 -25 2 -27 21 -16 12 6 42 31 66
56 25 24 47 42 50 39 8 -8 -18 -119 -37 -156 -19 -37 -85 -98 -212 -195 -43
-32 -76 -61 -73 -63 9 -9 131 66 196 120 39 33 72 58 74 56 2 -2 -11 -64 -30
-139 -59 -239 -174 -510 -256 -603 l-41 -46 -37 33 c-102 92 -215 143 -342
154 -76 7 -146 -18 -174 -61 -29 -44 -12 -82 77 -169 43 -42 73 -77 66 -77 -7
0 -71 39 -143 86 -71 47 -168 104 -215 127 -73 35 -96 41 -165 45 -67 4 -84 1
-98 -13 -9 -9 -17 -23 -17 -31 0 -21 70 -94 190 -197 296 -255 298 -260 51
-143 -86 41 -180 81 -210 90 -30 9 -102 47 -160 85 -58 38 -135 85 -171 104
-138 74 -343 140 -386 123 -15 -6 -14 -10 11 -36 15 -16 53 -42 83 -57 37 -18
96 -67 171 -141 64 -63 109 -110 101 -106 -8 4 -71 46 -140 92 -194 132 -310
178 -348 140 -39 -39 37 -186 197 -377 60 -72 76 -100 46 -83 -19 10 -391 357
-458 427 -26 28 -60 74 -74 104 l-27 54 22 17 c23 19 56 17 70 -4 4 -6 12 -29
17 -51 12 -42 35 -56 60 -35 23 19 17 60 -15 115 -26 43 -38 85 -26 85 2 0 33
-9 68 -20 159 -49 510 -87 698 -75 262 16 528 60 695 116 125 41 314 134 424
208 140 94 291 244 291 289 0 9 -16 -4 -37 -29 -50 -59 -110 -116 -155 -146
-37 -25 -63 -26 -126 -7 -13 4 -12 2 3 -11 11 -9 27 -20 35 -25 13 -8 13 -11
-3 -27 -14 -14 -21 -15 -35 -6 -16 9 -20 7 -29 -18 -7 -18 -21 -30 -39 -35
-16 -4 -39 -16 -51 -27 -24 -21 -53 -17 -53 8 0 10 -10 15 -30 15 -23 0 -30 4
-30 20 0 27 -10 25 -59 -10 -46 -34 -46 -45 2 -55 49 -11 51 -16 20 -36 -36
-24 -36 -24 -57 11 l-17 30 -30 -17 c-17 -10 -51 -39 -75 -65 -49 -52 -91 -63
-125 -32 -16 14 -21 12 -69 -24 -64 -48 -220 -99 -220 -72 0 6 4 10 10 10 32
0 130 49 167 83 47 43 55 80 21 101 -14 8 -23 5 -47 -18 -34 -32 -52 -19 -26
20 21 32 52 43 90 33 42 -13 45 -12 45 14 0 39 -33 61 -80 53 -39 -6 -40 -5
-30 14 13 25 65 27 98 4 12 -8 32 -14 45 -12 18 2 23 10 25 44 4 57 -15 74
-81 74 -29 0 -83 -5 -122 -11 -91 -14 -389 -13 -485 0 -41 6 -111 19 -155 28
-79 17 -80 18 -40 25 22 4 108 12 191 17 83 6 209 22 280 36 216 42 354 43
362 3 7 -34 -276 -78 -512 -78 -125 0 -157 -3 -148 -12 8 -8 64 -14 170 -16
149 -4 257 3 436 29 l80 11 38 -41 c47 -50 94 -57 104 -16 6 24 9 25 54 19 43
-6 51 -4 74 19 27 27 33 65 16 97 -12 22 -48 16 -69 -13 -11 -15 -15 -16 -22
-6 -14 23 -11 27 41 44 68 23 93 18 105 -22 8 -30 13 -33 50 -33 22 0 54 -9
73 -20 38 -24 44 -44 7 -30 -15 6 -26 6 -30 0 -4 -7 -13 -6 -25 0 -29 15 -57
12 -62 -8 -10 -35 4 -83 28 -98 21 -14 25 -14 51 5 15 11 64 32 108 46 109 36
228 101 287 156 61 57 61 80 1 94 -55 13 -60 20 -23 35 47 19 76 2 88 -52 l9
-43 25 55 c38 81 78 216 87 287 8 65 -8 248 -27 318 -27 96 -172 264 -269 312
-58 28 -110 27 -143 -2 -9 -8 -25 -13 -34 -9 -21 8 -21 11 9 46 21 24 23 32
12 48 -19 32 -79 30 -114 -2 -28 -26 -29 -38 -3 -38 11 0 20 -7 20 -15 0 -19
-8 -19 -55 1 -20 8 -39 14 -40 12 -2 -2 7 -15 19 -29 16 -19 35 -27 70 -31 31
-4 57 -14 74 -30 34 -30 75 -48 111 -48 37 0 41 6 28 40 -6 16 -8 32 -4 36 12
12 119 -60 183 -124 63 -62 86 -101 42 -68 -99 73 -111 77 -168 71 -30 -3 -78
-6 -107 -7 l-52 0 16 -25 c12 -19 22 -23 40 -18 21 5 24 3 18 -15 -6 -18 11
-39 96 -120 101 -97 102 -98 96 -136 -4 -22 -7 -45 -7 -51 0 -7 -7 -13 -15
-13 -8 0 -15 7 -15 17 0 57 -102 153 -200 189 -63 22 -170 23 -204 1 -40 -26
-34 -53 13 -61 l39 -6 -11 -37 c-6 -21 -12 -39 -13 -41 -1 -2 -19 8 -39 23
-21 14 -42 25 -47 25 -5 0 -31 -11 -58 -25 -27 -14 -51 -25 -54 -25 -2 0 -4
21 -3 47 2 47 1 48 -43 69 l-45 21 32 7 c18 4 42 5 53 1 23 -7 27 7 5 25 -12
10 -21 10 -44 0 -17 -6 -35 -9 -41 -5 -6 4 -22 -3 -35 -15 -18 -17 -31 -21
-50 -16 -40 10 -49 -3 -20 -29 14 -13 25 -29 25 -34 0 -14 -67 -31 -100 -25
-15 4 -31 1 -34 -5 -4 -6 -16 -11 -27 -11 -11 0 -18 -4 -14 -9 3 -5 20 -7 38
-4 28 4 35 1 44 -19 10 -22 15 -23 99 -21 49 1 111 2 137 2 32 0 61 7 84 21
47 27 73 20 113 -30 27 -34 29 -41 16 -46 -9 -4 -29 -3 -44 1 -64 16 -104 17
-142 1 -28 -11 -47 -13 -63 -7 -23 9 -25 7 -30 -41 -8 -66 -24 -88 -105 -148
-200 -149 -687 -319 -962 -337 -66 -4 -79 -2 -110 19 l-35 23 58 3 c53 3 58 5
55 25 -2 14 -16 26 -42 36 -37 14 -40 14 -56 -7 -22 -26 -59 -36 -106 -28 -30
6 -34 10 -23 22 18 21 2 30 -19 11 -10 -10 -23 -17 -28 -17 -11 0 -84 72 -84
83 0 18 38 25 63 12 22 -11 29 -11 44 1 22 17 41 18 25 2 -18 -18 -15 -28 9
-28 16 0 19 4 14 21 -7 20 -5 21 21 15 38 -10 41 -14 26 -34 -6 -9 -18 -29
-27 -43 -14 -26 -14 -27 15 -31 27 -4 30 -2 30 23 0 39 21 52 72 44 l43 -6
-25 20 c-24 19 -24 21 -8 37 16 16 16 18 0 31 -16 13 -16 14 2 26 82 53 103
85 81 128 -9 17 -15 33 -12 35 2 2 20 -3 40 -11 20 -8 51 -15 68 -15 l31 0 -6
45 c-6 37 -4 45 8 45 9 0 25 13 37 29 15 20 32 30 60 34 22 3 56 17 75 32 32
25 36 31 31 62 -6 34 -6 35 16 19 71 -52 67 -50 111 -38 34 9 53 8 97 -5 30
-8 56 -17 59 -20 13 -12 -33 -23 -96 -23 -56 0 -74 -4 -87 -18 -33 -36 -15
-65 74 -116 55 -31 75 -33 97 -7 20 23 82 42 112 34 35 -9 22 -23 -22 -23
l-43 -1 37 -19 c33 -18 68 -54 68 -70 0 -4 -40 -28 -89 -54 -86 -45 -90 -46
-100 -27 -18 34 -13 39 49 46 66 8 82 25 23 25 -21 0 -55 -11 -80 -26 -55 -32
-84 -33 -172 -4 -65 21 -101 22 -101 3 0 -4 37 -16 83 -27 115 -25 118 -26
112 -35 -2 -5 -19 -11 -36 -15 -26 -5 -29 -9 -20 -20 15 -18 11 -21 -81 -52
-75 -25 -128 -31 -128 -14 0 6 -11 22 -25 35 -20 21 -33 25 -88 25 -78 0 -127
-15 -127 -40 0 -10 6 -23 14 -29 12 -10 17 -8 26 8 6 11 19 25 30 31 25 13 50
-11 50 -50 0 -25 -5 -30 -35 -36 -19 -3 -42 -3 -51 0 -10 4 -14 1 -11 -6 3 -9
28 -13 83 -12 88 1 195 26 344 81 168 62 413 191 389 206 -2 1 -17 9 -34 17
-16 9 -31 24 -33 34 -3 15 -1 16 16 7 23 -12 78 -14 136 -4 31 5 41 12 50 35
12 33 21 35 37 7 9 -17 7 -25 -12 -45 l-22 -24 21 0 c31 0 59 60 46 98 -8 22
-16 28 -47 30 -33 3 -38 0 -47 -24 l-11 -28 -18 30 c-17 27 -73 58 -85 46 -3
-3 -6 -14 -6 -24 0 -15 3 -16 19 -7 40 26 74 -15 47 -56 -23 -36 -64 -33 -102
6 -28 29 -32 30 -83 24 -35 -4 -67 -16 -87 -32 l-33 -25 -50 28 c-28 15 -58
36 -68 46 -17 19 -17 20 2 34 26 19 52 18 64 -3 9 -15 12 -16 20 -4 5 8 18 11
32 8 33 -8 96 47 79 69 -7 7 -23 14 -36 14 -13 0 -42 7 -65 16 -33 14 -48 15
-77 6 -32 -10 -42 -9 -77 9 -22 12 -56 34 -75 49 -46 36 -87 44 -101 19 -5
-11 -18 -19 -29 -19 -10 0 -22 -5 -26 -12 -5 -8 9 -10 53 -5 56 6 61 5 86 -21
25 -26 26 -29 11 -50 -22 -31 -52 -45 -109 -52 -45 -4 -50 -7 -50 -30 0 -18
-6 -26 -22 -28 -32 -5 -49 -28 -33 -47 16 -20 6 -45 -19 -45 -11 0 -43 9 -71
20 -64 25 -106 25 -147 0 -39 -23 -40 -33 -12 -61 l21 -21 28 27 c34 32 69 30
87 -4 15 -32 3 -56 -40 -77 -44 -22 -67 -53 -67 -91 0 -26 -4 -33 -19 -33 -11
0 -23 5 -27 11 -3 6 -20 17 -38 24 -26 11 -35 11 -58 -1 -22 -12 -37 -12 -68
-4 -46 12 -58 26 -30 33 13 3 20 14 20 30 0 33 12 40 44 26 35 -16 47 -2 17
22 -30 25 -73 24 -96 -1 -16 -17 -20 -18 -38 -5 -13 9 -44 15 -75 15 -43 0
-60 -5 -84 -25 -16 -14 -36 -25 -43 -25 -18 0 -235 216 -235 234 0 30 66 26
100 -6 17 -16 20 -27 15 -54 -6 -32 -4 -34 23 -34 22 0 34 -8 53 -37 13 -21
29 -37 34 -36 21 4 16 46 -10 85 -18 28 -25 47 -21 64 8 31 23 30 58 -3 32
-30 43 -26 34 12 -6 24 -10 26 -54 23 -44 -3 -48 -5 -58 -38 -13 -40 -34 -52
-34 -18 0 55 -61 92 -141 87 -38 -3 -44 0 -65 31 -13 19 -24 37 -24 41 0 3 28
19 63 33 74 33 97 52 97 81 0 19 5 21 58 20 76 -2 75 -2 56 -30 -20 -31 -11
-45 31 -45 24 0 44 9 67 30 37 33 21 41 -19 10 -33 -26 -68 -27 -58 -2 4 9 8
26 9 37 1 18 -5 20 -54 20 -50 0 -55 2 -70 30 -8 17 -19 33 -25 37 -15 11
-115 10 -115 -1 0 -28 15 -41 45 -41 50 0 65 -63 21 -90 -13 -8 -42 -28 -65
-44 -52 -36 -56 -33 -104 80 -60 141 -81 241 -81 389 -1 146 12 202 70 316 72
144 241 276 340 267 38 -4 39 -4 13 -15 -27 -12 -43 -38 -33 -54 9 -15 42 -10
86 12 44 22 87 21 125 -6 35 -24 36 -54 2 -88 -16 -16 -33 -26 -37 -23 -4 4 4
16 18 26 25 19 25 20 3 20 -25 0 -59 -42 -48 -60 12 -20 61 -10 95 20 19 16
43 29 52 30 20 0 58 -46 58 -70 0 -27 -35 -52 -72 -50 -57 3 -61 2 -54 -23 9
-36 -15 -61 -58 -59 -25 1 -36 -3 -36 -13 0 -26 20 -27 85 -4 50 18 70 21 92
13 40 -14 38 -52 -4 -79 -18 -11 -31 -24 -29 -30 5 -16 48 -6 88 21 45 29 74
31 88 5 16 -30 12 -55 -15 -94 -13 -20 -20 -39 -16 -42 15 -9 72 27 81 51 13
32 61 33 90 2 17 -18 21 -33 18 -68 -4 -60 20 -65 50 -11 13 22 35 49 50 60
l27 20 -31 1 c-27 0 -32 -4 -43 -40 -16 -54 -31 -60 -31 -11 0 81 -80 123
-136 70 l-25 -23 7 41 c6 36 3 45 -20 68 -26 26 -37 27 -78 10 -15 -6 -18 -2
-18 28 0 40 -11 47 -76 47 -32 0 -44 4 -44 15 0 11 12 15 45 15 60 0 85 24 85
84 0 37 -5 48 -31 70 -17 14 -39 26 -50 26 -10 0 -25 13 -34 30 -24 47 -60 65
-126 63 -50 -1 -56 1 -52 17 3 11 18 21 41 25 21 4 43 11 50 17 22 19 13 55
-20 83 -30 26 -37 27 -100 21 -38 -3 -68 -3 -68 1 0 5 13 16 30 25 37 21 50
66 25 84 -10 7 -15 20 -12 28 6 15 -13 36 -51 55 -33 17 -143 15 -210 -4 -171
-50 -327 -174 -400 -322 -46 -91 -54 -100 -72 -77 -20 23 12 82 50 96 34 11
34 11 19 53 -11 29 -9 36 21 81 46 68 166 182 234 223 83 50 180 81 280 92
108 11 136 26 136 72 0 64 -62 97 -183 97 -66 0 -203 -25 -211 -38 -2 -4 -1
-26 4 -50 10 -56 -5 -64 -26 -13 -17 44 -36 56 -64 41 -30 -16 -45 -49 -25
-56 19 -8 20 -34 0 -34 -28 0 -35 34 -18 88 17 51 17 52 -8 78 -34 37 -72 54
-118 54 -45 0 -58 -12 -36 -30 15 -12 21 -40 9 -40 -3 0 -17 9 -31 20 -18 14
-41 20 -74 20 -27 0 -49 4 -49 8 0 5 11 19 25 32 29 27 31 40 10 79 -18 35
-71 61 -122 60 l-38 -1 48 -13 c51 -14 97 -40 97 -54 0 -5 -17 0 -37 10 -119
60 -313 -29 -250 -115 10 -14 35 -19 107 -25 95 -8 120 -21 120 -59 0 -13 -3
-12 -18 1 -43 39 -122 -3 -108 -58 8 -32 40 -45 115 -45 52 0 60 -3 90 -34 18
-18 36 -49 41 -67 5 -19 12 -44 15 -56 5 -16 3 -23 -7 -23 -8 0 -18 14 -23 32
-6 17 -18 36 -28 42 -14 9 -21 6 -41 -18 l-23 -30 -7 36 c-7 38 -36 58 -85 58
-33 0 -76 -42 -87 -84 l-7 -29 -17 23 c-14 19 -23 22 -51 16 -32 -6 -69 -31
-69 -48 0 -14 47 -9 60 7 17 21 29 19 79 -15 26 -18 57 -30 76 -30 37 0 75
-35 75 -69 l0 -22 -27 19 c-62 42 -123 54 -179 35 -71 -24 -109 -11 -171 55
-48 53 -56 57 -95 57 -24 -1 -79 -15 -123 -32 -133 -52 -200 -66 -320 -67 -82
-1 -123 4 -162 17 -59 21 -103 52 -103 73 0 22 31 16 61 -12 55 -53 69 19 18
98 -58 90 -117 110 -218 74 -54 -20 -74 -20 -150 -1 -74 19 -115 11 -185 -40
-61 -43 -96 -47 -96 -9 0 14 -14 44 -31 66 -32 40 -32 40 -15 75 17 35 17 36
-8 62 -15 15 -26 32 -26 38 0 7 48 57 108 112 320 299 652 507 1072 674 500
198 945 250 1211 142 77 -31 138 -32 277 -5 178 35 302 21 368 -41 27 -25 32
-69 9 -69 -11 0 -14 7 -10 23 5 18 1 26 -20 35 -53 24 -110 8 -135 -38 -8 -15
-3 -27 26 -61 19 -23 42 -55 50 -71 11 -21 19 -27 27 -20 16 13 94 -24 114
-54 8 -13 12 -31 9 -40 -5 -14 -10 -13 -31 10 -46 49 -74 29 -75 -54 0 -19 -5
-42 -10 -50 -7 -11 -10 -6 -10 21 0 46 -34 93 -58 80 -13 -7 -24 -1 -48 27
-26 30 -37 36 -68 35 -43 -1 -59 -13 -76 -53 -16 -40 -28 -38 -36 5 -10 55
-53 85 -120 85 -81 0 -114 -21 -114 -72 0 -38 44 -86 93 -100 23 -6 51 -17 62
-24 11 -7 37 -16 58 -19 67 -13 101 -77 81 -152 -9 -32 -24 -29 -24 5 0 45
-35 92 -68 92 -38 0 -58 -24 -75 -90 -8 -30 -19 -56 -26 -58 -14 -5 -14 3 0
27 14 22 6 60 -20 92 -17 21 -29 24 -105 28 l-86 3 26 31 c19 22 24 37 19 56
-19 77 -135 111 -151 45 -3 -13 -8 -24 -10 -24 -2 0 -20 11 -40 25 -40 27 -73
31 -107 14 -60 -31 -77 -114 -33 -162 33 -35 65 -42 112 -22 43 18 37 21 86
-48 12 -18 30 -26 65 -30 97 -12 137 -25 153 -48 8 -12 36 -44 62 -70 33 -32
48 -54 48 -73 0 -35 -7 -33 -24 8 -16 38 -46 59 -79 54 -24 -3 -24 -1 -11
-145 l6 -63 71 0 c64 0 76 3 119 32 26 18 55 47 64 64 22 41 15 124 -15 164
-28 38 -27 40 12 40 18 0 38 5 45 12 15 15 16 119 1 152 -10 20 -9 30 5 50 14
22 21 25 63 20 46 -5 49 -3 68 28 25 40 40 35 40 -13 0 -48 20 -72 47 -58 16
8 31 8 60 -2 39 -13 56 -10 134 22 44 17 77 5 107 -39 23 -35 32 -40 89 -51
96 -18 122 -29 153 -61 34 -36 27 -51 -11 -21 -33 26 -56 27 -77 3 -23 -26
-21 -54 8 -112 31 -62 31 -66 -1 -41 -35 27 -62 27 -66 -1 -5 -35 -25 -32 -32
6 -13 68 -87 88 -129 33 -29 -38 -31 -102 -4 -154 18 -34 23 -103 8 -103 -5 0
-11 10 -15 23 -9 37 -52 77 -81 77 -15 0 -40 -9 -56 -21 -34 -24 -35 -22 -12
25 34 72 -30 135 -124 121 -35 -5 -56 -18 -106 -65 l-62 -59 31 -1 c24 0 38 8
57 34 28 35 81 66 116 66 12 0 33 -12 48 -26 20 -20 24 -31 19 -56 -3 -17 -15
-38 -27 -46 -16 -11 -17 -17 -8 -28 16 -20 42 -17 72 6 53 42 97 19 117 -62 7
-27 16 -48 21 -48 27 0 36 118 14 188 -19 58 80 -3 112 -70 37 -77 117 -127
204 -128 29 -1 38 -7 60 -44 l26 -42 61 4 c34 2 77 1 96 -2 39 -8 119 -74 143
-119 9 -17 26 -40 39 -50 26 -20 49 -56 41 -64 -3 -3 -20 3 -37 14 -31 18 -31
18 -49 -6 -20 -26 -41 -21 -41 10 0 10 -4 19 -10 19 -5 0 -10 -17 -10 -37 0
-27 3 -34 9 -24 8 12 13 11 30 -10 19 -22 20 -23 21 -4 0 11 4 26 9 34 13 21
58 -1 71 -34 14 -38 40 -32 40 8 0 23 -10 45 -33 73 -18 21 -43 55 -55 75 -32
53 -112 124 -157 139 -22 7 -62 10 -94 8 -56 -5 -56 -5 -83 33 -23 32 -34 38
-75 44 -86 11 -120 24 -152 60 -17 20 -31 42 -31 50 0 28 -71 94 -112 106 -37
9 -39 12 -33 37 10 42 25 53 64 50 33 -3 36 -6 49 -50 11 -41 17 -48 38 -48
17 0 27 8 34 26 16 41 44 27 50 -25 5 -41 30 -72 30 -37 0 9 5 25 12 35 9 15
5 31 -20 86 -35 73 -38 95 -20 113 21 21 43 13 77 -25 22 -25 35 -33 42 -26
20 20 -1 72 -43 107 -38 33 -73 45 -170 61 -30 5 -44 15 -68 50 -28 41 -35 45
-71 45 -22 0 -56 -7 -76 -15 -52 -22 -107 -18 -141 10 -7 6 21 95 30 95 5 0
17 -18 25 -40 17 -44 36 -51 53 -21 30 57 -2 119 -81 152 -45 20 -139 107
-139 130 0 5 14 16 31 25 42 21 75 7 84 -36 6 -26 11 -31 32 -28 33 4 48 27
39 61 -9 36 -41 65 -106 96 -46 21 -69 25 -140 25 -47 0 -120 -8 -162 -17
-118 -26 -177 -23 -245 13 -118 61 -298 86 -498 69z m710 -389 c12 -12 25 -38
29 -58 3 -20 11 -44 16 -52 9 -13 14 -10 33 14 61 82 73 91 103 81 37 -13 63
-58 48 -82 -8 -13 -21 -17 -49 -15 -29 3 -43 -2 -64 -22 -26 -25 -28 -25 -74
-11 -26 8 -57 21 -69 30 -13 8 -34 15 -49 15 -39 0 -79 36 -79 70 0 58 104 78
155 30z m-312 -91 c48 -25 50 -67 5 -104 -25 -21 -29 -28 -17 -36 8 -5 23 -9
34 -9 11 0 26 -4 34 -9 17 -11 7 -17 -56 -36 -46 -14 -49 -14 -66 8 -53 66
-43 63 -137 41 -62 -14 -96 84 -44 125 38 30 77 27 117 -9 37 -32 47 -29 61
18 8 24 35 29 69 11z m287 -514 c0 -8 -7 -15 -15 -15 -8 0 -15 7 -15 15 0 8 7
15 15 15 8 0 15 -7 15 -15z m-2740 -200 c0 -16 -46 -65 -61 -65 -16 0 -9 18
20 49 33 35 41 38 41 16z m2010 -295 c0 -5 -4 -10 -9 -10 -6 0 -13 5 -16 10
-3 6 1 10 9 10 9 0 16 -4 16 -10z m730 -30 c-20 -13 -40 -13 -40 0 0 6 12 10
28 10 21 0 24 -2 12 -10z m60 -15 c0 -8 -7 -15 -16 -15 -14 0 -14 3 -4 15 7 8
14 15 16 15 2 0 4 -7 4 -15z m-173 -122 c-15 -15 -17 -15 -23 1 -8 21 16 40
30 26 7 -7 4 -16 -7 -27z m-103 -66 c-32 -34 -73 -80 -91 -102 -24 -30 -32
-35 -32 -21 -1 18 157 186 174 186 5 0 -18 -28 -51 -63z m-284 -229 c0 -13
-23 -5 -28 10 -2 7 2 10 12 6 9 -3 16 -11 16 -16z m30 -88 c0 -21 -24 -28 -35
-10 -8 14 3 30 21 30 8 0 14 -9 14 -20z m-253 -121 c14 -14 6 -39 -12 -39 -18
0 -28 17 -21 35 6 18 18 19 33 4z m27 -101 c29 -308 71 -482 180 -753 51 -125
95 -219 134 -283 49 -83 31 -74 -21 10 -56 89 -155 295 -192 398 -14 41 -33
83 -42 92 -8 9 -12 22 -8 28 4 6 -5 54 -19 108 -38 146 -76 418 -61 442 14 22
24 7 29 -42z m-601 -57 c43 -257 136 -441 347 -686 186 -216 505 -493 679
-589 46 -25 99 -60 119 -77 20 -17 51 -38 70 -46 54 -23 60 -5 25 74 -29 68
-29 68 -76 73 -53 7 -62 13 -53 35 5 14 14 15 49 10 23 -4 56 -13 74 -20 31
-13 32 -15 26 -62 -6 -55 11 -83 50 -83 28 0 67 -26 67 -45 0 -22 16 -26 50
-11 40 16 93 7 125 -24 l23 -22 69 37 c87 47 110 44 233 -27 71 -40 96 -60 98
-77 3 -22 1 -21 -44 13 -26 20 -51 36 -56 36 -5 0 -17 -18 -26 -40 -16 -37
-32 -53 -32 -30 0 18 -64 50 -100 50 -51 0 -63 -12 -58 -54 5 -43 -1 -44 -32
-11 -13 14 -41 30 -61 37 -71 21 -115 -34 -85 -106 20 -49 30 -45 22 8 -6 40
-5 47 18 61 21 14 28 14 58 2 39 -16 136 -99 155 -131 17 -30 16 -66 -2 -66
-10 0 -15 10 -15 30 0 45 -39 80 -89 80 -66 0 -89 -45 -56 -110 20 -38 103
-140 179 -217 33 -35 55 -63 48 -63 -7 0 -90 76 -185 168 -95 93 -185 178
-201 190 -57 43 -136 15 -136 -48 0 -16 9 -54 21 -85 12 -31 19 -58 17 -61
-10 -9 -195 165 -228 214 -20 29 -57 102 -84 163 -41 91 -47 112 -35 119 21
14 61 1 92 -30 21 -20 29 -38 32 -71 4 -51 17 -60 40 -25 22 34 34 140 14 134
-8 -3 -15 -22 -17 -46 -4 -51 -14 -53 -30 -7 -18 49 -65 85 -111 85 -50 0 -77
-30 -92 -100 -19 -90 -49 -110 -49 -34 0 39 -2 45 -14 35 -11 -10 -16 -8 -21
8 -10 32 -25 25 -25 -11 l0 -31 -27 24 c-38 35 -25 6 43 -98 60 -91 167 -209
233 -258 22 -16 41 -34 41 -38 1 -27 -223 149 -355 279 -130 128 -189 205
-282 367 -76 134 -124 189 -177 207 -28 9 -41 9 -63 -2 -64 -30 -33 -135 98
-330 182 -271 481 -551 859 -807 185 -125 320 -203 535 -307 95 -46 178 -91
185 -99 18 -22 25 -19 35 18 13 43 56 50 81 12 21 -32 13 -41 -19 -21 -34 23
-60 11 -54 -23 3 -14 9 -34 12 -44 12 -29 -55 -50 -140 -45 -84 6 -255 61
-365 119 -79 40 -174 122 -167 143 9 27 51 13 221 -73 176 -89 263 -119 296
-101 17 10 -19 28 -109 55 -30 9 -102 41 -161 70 -154 77 -225 104 -314 120
-127 23 -295 128 -520 326 -152 133 -730 717 -814 823 -129 161 -201 285 -269
460 -36 92 -55 217 -35 229 17 11 29 -15 47 -103 45 -220 143 -408 298 -567
87 -90 121 -106 162 -79 36 24 32 63 -19 208 -25 69 -57 175 -71 236 -15 62
-32 112 -36 112 -5 0 -9 -4 -9 -9 0 -37 37 -182 80 -315 56 -175 58 -206 12
-206 -32 0 -53 16 -45 36 3 8 -1 14 -10 14 -24 0 -119 98 -164 167 -88 136
-151 295 -178 452 -23 131 -34 163 -69 195 -29 28 -31 34 -22 59 12 34 20 34
34 2 16 -36 35 -31 61 15 41 73 112 106 124 58 4 -12 9 -19 13 -16 3 4 4 19 0
33 -9 36 -78 82 -144 96 -74 16 -102 33 -102 64 0 38 58 35 103 -5 19 -16 37
-30 40 -30 2 0 7 18 11 39 3 22 10 42 14 45 5 3 25 -6 46 -20 42 -28 56 -25
56 15 0 25 3 27 30 23 22 -3 40 4 72 27 23 17 54 31 68 31 26 0 27 -3 43 -99z
m407 24 c0 -16 -27 -28 -36 -14 -7 12 15 41 27 33 5 -3 9 -11 9 -19z m-1785
-15 c0 -8 -7 -16 -15 -17 -22 -4 -44 13 -35 26 10 17 50 9 50 -9z m-400 -115
c0 -22 -31 -33 -47 -17 -17 17 -1 44 24 40 15 -2 23 -10 23 -23z m283 2 c3
-15 -2 -18 -25 -15 -17 2 -29 10 -31 21 -3 15 2 18 25 15 17 -2 29 -10 31 -21z
m1647 -37 c4 -19 20 -82 36 -139 31 -110 37 -150 18 -119 -12 21 -65 227 -73
283 -6 47 8 28 19 -25z m265 45 c0 -8 -4 -15 -10 -15 -5 0 -10 7 -10 15 0 8 5
15 10 15 6 0 10 -7 10 -15z m390 -36 c0 -5 -7 -9 -15 -9 -15 0 -20 12 -9 23 8
8 24 -1 24 -14z m-360 -179 c0 -5 -7 -10 -15 -10 -8 0 -15 5 -15 10 0 6 7 10
15 10 8 0 15 -4 15 -10z m815 -11 c4 -6 5 -13 2 -16 -8 -7 -47 7 -47 18 0 13
37 11 45 -2z m-477 -37 c3 -17 -2 -22 -17 -22 -14 0 -21 6 -21 18 0 38 33 41
38 4z m-1368 -48 c0 -14 -21 -19 -33 -7 -9 9 13 34 24 27 5 -3 9 -12 9 -20z
m68 9 c6 -19 -35 -16 -42 3 -4 11 0 15 16 12 12 -2 23 -9 26 -15z m3642 -25
c0 -7 -5 -20 -10 -28 -7 -12 -12 -12 -21 -3 -9 9 -9 16 1 28 15 18 30 20 30 3z
m80 -53 c0 -16 -6 -25 -15 -25 -8 0 -15 5 -15 10 0 6 -7 10 -15 10 -18 0 -20
16 -2 23 31 13 47 7 47 -18z m-52 -28 c6 -5 12 -13 12 -17 0 -14 -48 -20 -76
-10 -25 10 -26 9 -13 -6 13 -16 10 -17 -40 -11 -55 6 -76 16 -53 24 6 3 31 15
55 27 43 23 79 21 115 -7z m807 -21 c0 -37 -15 -42 -43 -16 -27 25 -28 37 -4
43 34 10 47 2 47 -27z m-2877 -17 c16 -26 -1 -51 -32 -47 -27 4 -33 38 -10 55
24 17 27 17 42 -8z m2540 -56 c5 -17 -26 -29 -40 -15 -6 6 -7 15 -3 22 9 14
37 9 43 -7z m-4940 -36 c2 -12 -3 -17 -17 -17 -23 0 -24 1 -15 25 8 19 28 15
32 -8z m171 -50 c13 -16 5 -27 -21 -27 -11 0 -18 7 -18 20 0 23 22 27 39 7z
m5130 -24 c-1 -16 -4 -39 -8 -52 l-7 -24 -17 26 c-21 33 -33 34 -58 5 -18 -22
-18 -23 -19 -2 0 36 43 73 88 74 18 0 22 -5 21 -27z m-1979 -2 c0 -5 -13 -12
-29 -16 -16 -3 -32 -13 -35 -21 -3 -9 -10 -12 -16 -9 -18 11 -10 26 23 40 38
17 57 19 57 6z m1448 -10 c9 -5 0 -10 -27 -14 -63 -8 -73 -20 -55 -69 16 -47
18 -82 4 -73 -5 3 -10 15 -10 26 0 35 -37 62 -78 56 -63 -9 -126 -27 -163 -47
-33 -18 -38 -18 -43 -4 -15 40 -7 54 32 54 41 0 115 31 147 60 11 10 29 20 40
23 25 7 135 -2 153 -12z m-2040 -10 c3 -8 -1 -12 -9 -9 -7 2 -15 10 -17 17 -3
8 1 12 9 9 7 -2 15 -10 17 -17z m-3318 -30 c0 -21 -26 -36 -36 -20 -9 15 3 39
21 39 8 0 15 -9 15 -19z m3064 -96 c-6 -15 -35 -20 -47 -9 -3 4 -2 15 4 25 8
15 14 17 29 9 11 -6 17 -16 14 -25z m453 10 c19 -8 46 -15 59 -15 29 0 31 -15
4 -30 -15 -8 -19 -17 -14 -34 7 -30 -11 -66 -34 -66 -10 0 -51 23 -92 52 l-73
51 29 23 c25 20 38 26 77 33 4 0 24 -6 44 -14z m-3752 -6 c10 -15 -1 -23 -20
-15 -9 3 -13 10 -10 16 8 13 22 13 30 -1z m3383 -1 c30 -30 -1 -73 -36 -51
-23 14 -25 29 -7 47 20 19 27 20 43 4z m-2172 -43 c15 -23 15 -27 0 -50 -21
-32 -59 -33 -80 -3 -30 43 -14 78 36 78 18 0 33 -8 44 -25z m4864 16 c0 -5 -6
-14 -14 -20 -16 -13 -32 2 -21 19 8 12 35 13 35 1z m-2580 -51 c-7 -12 -10
-35 -8 -51 3 -15 1 -26 -4 -23 -4 3 -8 16 -8 29 0 29 18 80 26 72 3 -3 0 -15
-6 -27z m1230 20 c-20 -13 -40 -13 -40 0 0 6 12 10 28 10 21 0 24 -2 12 -10z
m1180 -19 c0 -11 -4 -23 -10 -26 -6 -4 -10 5 -10 19 0 14 5 26 10 26 6 0 10
-9 10 -19z m-2350 -17 c-7 -19 -7 -31 1 -40 7 -8 9 -17 6 -21 -4 -3 -11 6 -18
19 -8 19 -8 31 0 47 16 29 23 26 11 -5z m2195 16 c-3 -5 -10 -10 -16 -10 -5 0
-9 5 -9 10 0 6 7 10 16 10 8 0 12 -4 9 -10z m-4285 -15 c0 -8 -4 -15 -9 -15
-13 0 -22 16 -14 24 11 11 23 6 23 -9z m1788 -9 c3 -12 -1 -17 -10 -14 -7 3
-15 13 -16 22 -3 12 1 17 10 14 7 -3 15 -13 16 -22z m2246 -2 c8 -32 -5 -48
-32 -40 -29 9 -37 38 -16 53 27 20 41 16 48 -13z m176 -33 c0 -11 -5 -23 -11
-27 -15 -9 -33 12 -26 30 9 23 37 20 37 -3z m-2055 -21 c-15 -16 -33 -26 -38
-23 -6 3 -1 10 12 14 12 5 24 15 27 24 4 8 11 15 17 15 6 0 -2 -13 -18 -30z
m-95 -67 c0 -19 -5 -23 -29 -23 -52 0 -65 51 -17 70 25 10 46 -12 46 -47z
m160 44 c0 -2 -9 -12 -20 -22 -24 -21 -27 -14 -4 9 15 15 24 20 24 13z m1480
-37 c0 -23 -10 -26 -28 -8 -18 18 -15 28 8 28 13 0 20 -7 20 -20z m-1740 -10
c-20 -13 -33 -13 -25 0 3 6 14 10 23 10 15 0 15 -2 2 -10z m-2750 -35 c0 -8
-4 -15 -10 -15 -5 0 -10 7 -10 15 0 8 5 15 10 15 6 0 10 -7 10 -15z m-102 -18
c3 -12 -3 -17 -22 -17 -25 0 -35 18 -19 34 12 12 38 2 41 -17z m367 -2 c0 -30
-39 -27 -43 3 -3 20 0 23 20 20 15 -2 23 -10 23 -23z m2591 10 c-10 -8 -14
-24 -12 -46 2 -19 1 -24 -1 -11 -4 19 -7 21 -18 12 -12 -10 -13 -6 -5 22 6 18
10 33 10 33 0 1 9 1 21 1 17 0 18 -2 5 -11z m336 -57 c10 -6 10 -8 1 -8 -7 0
-18 9 -25 20 -7 11 -18 20 -25 20 -7 0 -13 10 -13 22 0 19 3 18 25 -12 14 -19
31 -37 37 -42z m46 37 c13 5 12 2 -3 -13 -19 -18 -20 -18 -32 5 -6 13 -15 29
-19 35 -4 7 3 3 16 -10 13 -15 28 -21 38 -17z m-466 -1 c-7 -12 -11 -13 -17
-4 -4 7 -2 16 6 21 18 11 23 4 11 -17z m-144 -22 c2 -7 -3 -12 -12 -12 -9 0
-16 7 -16 16 0 17 22 14 28 -4z m286 2 c3 -8 2 -12 -4 -9 -6 3 -10 10 -10 16
0 14 7 11 14 -7z m454 -42 c2 -12 -1 -22 -6 -22 -15 0 -34 28 -27 40 10 17 30
6 33 -18z m-457 -15 c-5 -14 -15 -28 -21 -32 -5 -3 -3 10 7 29 19 40 29 42 14
3z m-2743 -40 c2 -12 -3 -17 -17 -17 -12 0 -21 6 -21 13 0 31 32 34 38 4z
m-828 5 c0 -14 -11 -21 -26 -15 -21 8 -17 23 6 23 11 0 20 -4 20 -8z m750 -2
c0 -5 -4 -10 -10 -10 -5 0 -10 5 -10 10 0 6 5 10 10 10 6 0 10 -4 10 -10z
m2890 -38 c0 -4 -9 -8 -19 -8 -15 0 -17 3 -9 13 10 12 28 9 28 -5z m80 -28 c0
-18 -13 -24 -38 -18 -13 4 -19 11 -15 20 4 12 8 11 18 -3 19 -25 32 -7 16 20
-13 20 -13 21 2 8 10 -7 17 -19 17 -27z m-140 -14 c0 -5 -4 -10 -10 -10 -5 0
-10 5 -10 10 0 6 5 10 10 10 6 0 10 -4 10 -10z m-2430 -44 c0 -8 -5 -18 -11
-22 -14 -8 -33 11 -25 25 10 16 36 13 36 -3z m-710 -56 c0 -5 -4 -10 -10 -10
-5 0 -10 5 -10 10 0 6 5 10 10 10 6 0 10 -4 10 -10z m2605 -24 c-9 -45 16 -91
62 -119 20 -11 31 -23 24 -25 -7 -2 -24 -15 -38 -28 -26 -24 -57 -31 -67 -15
-3 4 5 6 17 4 15 -3 30 4 46 20 l23 25 -22 12 c-11 6 -30 26 -40 43 -25 41
-27 117 -3 117 2 0 1 -15 -2 -34z m-2548 -61 c1 -25 -4 -38 -17 -45 -24 -13
-48 -4 -56 22 -7 24 -3 29 39 44 18 6 32 12 32 13 0 0 1 -15 2 -34z m821 -99
c2 -10 0 -22 -5 -27 -14 -14 -58 24 -49 40 11 18 50 9 54 -13z m-1218 -26 c0
-18 -3 -19 -20 -10 -22 12 -18 30 6 30 8 0 14 -9 14 -20z m1030 10 c0 -5 -7
-10 -15 -10 -8 0 -15 5 -15 10 0 6 7 10 15 10 8 0 15 -4 15 -10z m2005 -40
c-16 -17 -35 -30 -42 -30 -7 0 4 15 25 34 44 41 57 38 17 -4z m-2330 -1 c0 -8
-10 -15 -22 -17 -25 -4 -30 7 -11 26 15 15 33 10 33 -9z m295 -19 c0 -5 -5
-10 -11 -10 -5 0 -7 5 -4 10 3 6 8 10 11 10 2 0 4 -4 4 -10z m-364 -41 c23
-25 9 -54 -27 -54 -28 0 -39 36 -19 61 16 19 23 18 46 -7z m324 -13 c28 -34
-11 -93 -47 -70 -32 20 -39 41 -19 63 22 24 49 27 66 7z m4313 -33 c-2 -17 5
-42 18 -63 l22 -35 15 23 c14 22 47 29 68 14 6 -4 23 -38 38 -77 15 -38 33
-73 39 -77 8 -5 8 -11 2 -17 -14 -14 -182 123 -208 169 -14 25 -18 44 -13 63
8 35 24 35 19 0z m-4718 8 c7 -12 -12 -24 -25 -16 -11 7 -4 25 10 25 5 0 11
-4 15 -9z m333 -74 c4 -21 -25 -34 -40 -19 -8 8 -8 16 2 27 16 19 34 15 38 -8z
m-527 -29 c-26 -20 -37 -22 -46 -9 -9 16 23 40 46 34 l22 -6 -22 -19z m219 11
c0 -5 -7 -9 -15 -9 -15 0 -20 12 -9 23 8 8 24 -1 24 -14z m378 -26 c3 -20 -1
-23 -27 -23 -23 0 -31 5 -31 18 0 25 10 33 35 30 12 -2 21 -12 23 -25z m172
-13 c0 -5 -7 -10 -15 -10 -8 0 -15 5 -15 10 0 6 7 10 15 10 8 0 15 -4 15 -10z
m90 -30 c0 -13 -7 -20 -20 -20 -22 0 -23 1 -14 24 9 23 34 20 34 -4z m195 10
c3 -5 -1 -10 -9 -10 -9 0 -16 5 -16 10 0 6 4 10 9 10 6 0 13 -4 16 -10z m-743
-45 c0 -5 -5 -11 -11 -13 -6 -2 -11 4 -11 13 0 9 5 15 11 13 6 -2 11 -8 11
-13z m1378 -10 c10 -12 10 -18 0 -30 -7 -8 -16 -15 -20 -15 -12 0 -20 28 -14
45 4 8 10 15 14 15 4 0 13 -7 20 -15z m3511 -2 c13 -15 11 -16 -11 -10 -14 4
-33 7 -42 7 -10 0 -18 5 -18 10 0 17 57 11 71 -7z m163 -8 c31 -29 35 -70 6
-78 -17 -4 -20 0 -20 29 0 23 -6 38 -20 46 -11 7 -20 16 -20 20 0 16 28 7 54
-17z m-4537 -31 c-9 -9 -28 6 -21 18 4 6 10 6 17 -1 6 -6 8 -13 4 -17z m123
22 c0 -11 -19 -15 -25 -6 -3 5 1 10 9 10 9 0 16 -2 16 -4z m743 -71 c4 -8 2
-17 -4 -21 -12 -7 -41 15 -33 27 8 14 31 11 37 -6z m-1133 -51 c0 -9 -5 -14
-12 -12 -18 6 -21 28 -4 28 9 0 16 -7 16 -16z m1398 -15 c-2 -6 -8 -10 -13
-10 -5 0 -11 4 -13 10 -2 6 4 11 13 11 9 0 15 -5 13 -11z m-98 -39 c0 -5 -7
-10 -15 -10 -8 0 -15 5 -15 10 0 6 7 10 15 10 8 0 15 -4 15 -10z m-80 -26 c0
-17 -22 -14 -28 4 -2 7 3 12 12 12 9 0 16 -7 16 -16z m2696 -17 c2 -7 -2 -30
-10 -52 l-15 -40 0 53 c-1 48 13 70 25 39z m-2502 -63 c7 -19 -1 -34 -18 -34
-18 0 -39 27 -31 40 10 16 42 12 49 -6z m2206 -25 c0 -5 -7 -9 -15 -9 -9 0
-15 9 -15 21 0 18 2 19 15 9 8 -7 15 -16 15 -21z m-456 -185 c4 -10 -2 -14
-19 -14 -18 0 -25 5 -25 19 0 14 5 18 19 14 11 -3 22 -11 25 -19z m-1904 -118
c0 -11 -19 -15 -25 -6 -3 5 1 10 9 10 9 0 16 -2 16 -4z m2590 -66 c0 -5 -7
-10 -15 -10 -8 0 -15 5 -15 10 0 6 7 10 15 10 8 0 15 -4 15 -10z m-2462 -12
c15 -15 16 -45 2 -53 -27 -17 -64 20 -53 53 6 15 35 16 51 0z m2317 -79 c18
-35 19 -34 -12 -43 -21 -7 -23 -4 -23 33 0 49 14 53 35 10z m325 7 c0 -2 3
-11 6 -20 4 -12 0 -16 -15 -16 -14 0 -21 6 -21 20 0 11 7 20 15 20 8 0 15 -2
15 -4z m-166 -55 c8 -12 -21 -34 -34 -26 -17 11 -11 35 9 35 11 0 22 -4 25 -9z
m-2284 -11 c0 -5 -7 -10 -16 -10 -8 0 -12 5 -9 10 3 6 10 10 16 10 5 0 9 -4 9
-10z m945 -60 c3 -5 -1 -10 -9 -10 -9 0 -16 5 -16 10 0 6 4 10 9 10 6 0 13 -4
16 -10z m110 -25 c0 -30 -39 -27 -43 3 -3 20 0 23 20 20 15 -2 23 -10 23 -23z
m1204 16 c16 -10 6 -31 -15 -31 -8 0 -14 9 -14 20 0 22 7 25 29 11z m-1212
-107 c-3 -3 -12 -4 -19 -1 -8 3 -5 6 6 6 11 1 17 -2 13 -5z m1131 -11 c-2 -10
-11 -19 -21 -21 -16 -3 -17 -1 -7 17 13 25 33 28 28 4z"/>
<path d="M3300 4851 c0 -6 11 -13 25 -17 14 -3 36 -20 50 -38 21 -26 25 -28
25 -11 0 11 -8 30 -18 42 -19 25 -82 43 -82 24z"/>
<path d="M3422 4788 c5 -15 28 -23 28 -10 0 5 -7 13 -16 16 -10 4 -14 1 -12
-6z"/>
<path d="M3330 4769 c0 -25 18 -45 30 -33 7 7 5 16 -10 29 -15 14 -20 15 -20
4z"/>
<path d="M3440 4640 c0 -11 5 -20 10 -20 6 0 10 9 10 20 0 11 -4 20 -10 20 -5
0 -10 -9 -10 -20z"/>
<path d="M3270 4591 c-43 -22 -70 -85 -55 -127 6 -15 16 -29 24 -32 11 -4 12
3 7 31 -14 73 45 127 116 107 17 -6 49 -26 70 -47 21 -20 41 -34 44 -30 13 12
-45 75 -89 96 -53 26 -73 26 -117 2z"/>
<path d="M4062 3874 c-26 -18 -28 -45 -7 -103 16 -45 73 -131 87 -131 5 0 -10
35 -32 77 -52 97 -52 136 -2 141 46 5 80 -20 105 -76 11 -26 22 -41 25 -34 13
41 -76 142 -126 142 -15 0 -38 -7 -50 -16z"/>
<path d="M4352 3656 c34 -45 48 -49 48 -16 0 20 -44 60 -67 60 -9 0 -2 -15 19
-44z"/>
<path d="M3989 6520 c-21 -21 -60 -47 -90 -58 -39 -15 -47 -21 -29 -21 38 -1
124 43 144 73 28 44 14 47 -25 6z"/>
<path d="M5373 6478 c-30 -34 -43 -63 -43 -98 0 -25 4 -31 18 -28 13 2 18 15
20 61 2 46 6 58 18 53 9 -4 14 1 14 14 0 25 -2 25 -27 -2z"/>
<path d="M5015 6468 c-2 -7 -9 -32 -15 -56 -6 -24 -14 -51 -16 -60 -4 -10 4
-6 20 11 25 27 50 93 40 109 -8 12 -24 10 -29 -4z"/>
<path d="M4484 6432 c-15 -9 -44 -67 -44 -87 0 -8 6 -15 14 -15 16 0 66 -38
66 -50 0 -4 -13 -3 -30 3 -43 16 -56 0 -37 -46 22 -52 47 -61 110 -43 81 24
97 39 97 93 0 36 -7 53 -32 85 -42 54 -111 82 -144 60z"/>
<path d="M4913 6249 c-36 -23 -41 -36 -18 -45 20 -8 65 -85 65 -111 0 -45 -31
-64 -115 -74 -119 -13 -171 -27 -263 -71 -90 -43 -189 -130 -251 -221 -38 -57
-36 -74 3 -23 15 20 55 56 90 81 121 86 260 135 387 135 72 0 88 -9 147 -89
22 -29 27 -31 88 -31 36 0 74 -5 85 -10 15 -9 21 -7 25 5 11 27 -6 103 -32
141 -14 20 -24 38 -22 39 2 2 23 5 47 8 53 5 71 25 71 82 0 78 -68 145 -188
184 -77 26 -79 26 -119 0z m205 -181 c-6 -18 -28 -21 -28 -4 0 9 7 16 16 16 9
0 14 -5 12 -12z m-428 -118 c0 -5 -4 -10 -10 -10 -5 0 -10 5 -10 10 0 6 5 10
10 10 6 0 10 -4 10 -10z"/>
<path d="M3810 6124 c0 -32 -68 -104 -99 -104 -11 0 -21 -5 -21 -11 0 -18 61
-2 88 24 42 39 70 117 42 117 -5 0 -10 -12 -10 -26z"/>
<path d="M5590 6083 c49 -47 61 -87 31 -102 -20 -11 -20 -10 -10 13 17 36 8
48 -54 79 -66 32 -90 33 -139 8 -37 -18 -37 -18 -40 2 -3 17 -7 14 -31 -19
-34 -49 -23 -53 62 -19 84 32 113 32 153 -4 29 -26 31 -30 20 -57 -13 -30 -19
-100 -10 -109 3 -3 13 -3 22 1 16 6 16 8 0 25 -16 18 -16 20 2 34 10 8 22 15
27 15 15 0 40 68 34 92 -10 37 -52 78 -81 78 -24 0 -24 -1 14 -37z"/>
<path d="M1677 6086 c-16 -24 -23 -27 -52 -22 -27 5 -35 2 -49 -19 -19 -29
-56 -33 -96 -10 -33 19 -75 19 -105 -1 -13 -8 -43 -25 -66 -37 -24 -12 -47
-30 -53 -39 -15 -25 4 -52 40 -58 27 -5 29 -9 32 -55 5 -71 21 -86 44 -41 29
56 94 61 144 11 33 -33 32 -84 -3 -125 -25 -30 -29 -31 -75 -25 -39 6 -53 4
-69 -11 -27 -24 -24 -35 7 -24 33 13 74 13 74 0 0 -6 -7 -25 -16 -41 -22 -43
-15 -93 14 -97 26 -4 27 0 6 40 -21 41 -4 81 48 116 40 26 68 67 68 98 0 28
-44 95 -72 110 -36 19 -102 18 -118 -1 -20 -24 -28 -18 -35 28 l-7 42 -40 -3
c-38 -4 -39 -3 -29 17 7 12 44 37 83 57 l72 36 53 -22 54 -22 37 26 c26 18 51
26 80 26 45 0 56 11 50 51 -3 23 -3 23 -21 -5z"/>
<path d="M5336 5977 l-29 -12 27 -32 c29 -34 36 -101 14 -148 -13 -29 -45 -36
-33 -7 18 45 17 87 -4 109 -52 55 -123 31 -129 -43 -5 -55 15 -117 34 -110 9
3 42 6 75 6 55 0 59 2 74 30 8 16 15 38 15 50 0 54 64 23 76 -37 5 -26 1 -37
-20 -58 -15 -15 -25 -29 -22 -32 8 -9 51 20 88 59 49 53 72 49 76 -15 3 -46 4
-47 37 -47 28 0 37 -6 49 -29 9 -17 23 -28 33 -27 29 2 18 -39 -27 -96 -22
-28 -39 -53 -36 -55 2 -2 23 1 46 7 34 9 46 9 66 -4 21 -14 22 -19 12 -41 -6
-14 -19 -25 -29 -25 -23 0 -33 16 -14 24 19 7 19 26 0 26 -17 0 -55 -35 -55
-49 0 -5 12 -11 27 -13 23 -2 35 -16 66 -73 46 -84 49 -87 71 -79 23 9 15 27
-15 34 -20 5 -24 12 -24 40 0 28 5 36 26 44 35 12 75 1 106 -30 20 -20 24 -32
20 -57 -3 -18 -7 -41 -9 -52 -2 -14 3 -21 19 -23 23 -3 53 30 53 61 0 10 9 30
20 44 27 34 26 38 -15 63 -29 18 -35 28 -35 55 0 75 56 68 116 -15 33 -46 54
-57 54 -26 0 18 -81 93 -114 106 -82 30 -110 -93 -31 -138 12 -6 11 -16 -7
-65 -25 -68 -40 -74 -31 -12 5 42 4 47 -33 80 -45 42 -96 47 -138 14 -25 -20
-46 -19 -46 3 0 7 14 23 32 38 26 22 30 31 24 53 -7 30 -39 47 -88 47 -29 0
-30 1 -15 18 9 10 23 36 30 57 11 31 19 40 37 40 36 0 45 55 16 98 -18 26 -29
32 -56 32 -35 0 -35 0 -33 -42 l2 -42 -44 22 c-38 19 -43 25 -38 49 3 16 0 35
-7 43 -16 19 -60 19 -87 0 -21 -15 -23 -14 -43 25 l-20 40 40 0 c38 0 41 2 35
23 -25 82 -115 127 -189 94z"/>
<path d="M5963 5953 c-28 -5 -63 -49 -63 -78 0 -24 23 -35 70 -34 24 0 23 1
-7 16 -69 34 -23 96 57 76 22 -5 42 -20 57 -42 18 -26 23 -30 23 -14 0 23 -16
44 -50 67 -24 16 -42 18 -87 9z"/>
<path d="M5947 5800 c-23 -18 -27 -29 -27 -69 0 -27 -7 -68 -15 -91 -14 -39
-14 -44 2 -56 10 -7 45 -20 78 -29 62 -18 104 -43 166 -102 24 -23 39 -31 44
-24 16 27 -163 151 -217 151 -30 0 -58 19 -58 38 1 9 9 32 19 51 15 28 16 41
8 73 -12 49 1 67 36 51 15 -7 27 -23 30 -43 6 -30 26 -38 34 -14 5 15 -40 78
-58 82 -8 1 -27 -7 -42 -18z"/>
<path d="M5801 5763 c0 -16 3 -22 6 -15 6 16 35 15 59 -3 23 -17 34 -19 34 -5
0 21 -41 50 -70 50 -26 0 -30 -3 -29 -27z"/>
<path d="M2656 5737 c-12 -9 -16 -23 -14 -42 l4 -30 14 28 c9 18 21 27 37 27
27 0 73 -41 73 -65 0 -21 34 -19 55 5 26 29 33 25 55 -25 11 -25 24 -45 30
-45 13 0 13 0 -10 53 -25 56 -66 107 -87 107 -15 0 -15 -23 1 -61 5 -10 1 -19
-8 -22 -11 -5 -22 5 -36 32 -26 52 -74 68 -114 38z"/>
<path d="M5125 5690 c-8 -24 1 -40 21 -40 8 0 14 -4 14 -10 0 -5 -6 -10 -14
-10 -8 0 -19 -15 -25 -32 -10 -28 -9 -35 6 -45 9 -7 21 -13 26 -13 4 0 24 -12
42 -26 40 -30 175 -85 227 -91 30 -4 42 0 64 22 23 23 26 33 21 71 -10 90
-103 166 -205 168 l-57 1 -14 -47 c-17 -57 -31 -62 -31 -13 0 25 -8 44 -25 60
-29 30 -42 31 -50 5z"/>
<path d="M3525 5671 c-92 -22 -126 -102 -54 -123 13 -4 44 -13 69 -20 58 -17
90 -68 90 -145 0 -29 -4 -53 -10 -53 -5 0 -10 10 -10 23 0 27 -26 67 -44 67
-7 0 -26 -20 -43 -44 -26 -36 -36 -43 -54 -39 -18 5 -21 3 -16 -11 4 -10 7
-20 7 -22 0 -15 27 2 64 42 25 25 49 43 54 40 5 -3 12 -23 16 -45 7 -44 30
-60 46 -31 16 29 12 127 -6 163 -26 50 -44 66 -88 78 -101 25 -114 39 -72 78
26 24 45 28 94 17 36 -8 44 7 13 24 -11 5 -21 10 -23 9 -2 -1 -16 -4 -33 -8z"/>
<path d="M5827 5673 c-2 -4 -8 -23 -12 -42 -8 -40 10 -35 26 7 9 24 -2 54 -14
35z"/>
<path d="M2666 5645 l-28 -12 47 -26 c26 -15 49 -27 51 -27 12 0 1 32 -18 53
-21 21 -26 23 -52 12z"/>
<path d="M2677 5562 c34 -31 93 -110 93 -126 0 -2 -18 -2 -40 1 -37 5 -40 4
-56 -31 -20 -41 -39 -48 -32 -11 6 27 -4 39 -40 48 -20 5 -26 0 -38 -29 -18
-44 -34 -43 -34 2 0 46 -14 70 -52 90 -40 21 -120 14 -149 -12 -19 -17 -19
-19 -2 -31 9 -8 35 -18 58 -24 22 -6 53 -20 69 -32 20 -14 27 -16 25 -6 -3 8
-34 28 -69 46 -61 30 -63 32 -37 38 35 9 92 -2 112 -21 8 -9 18 -33 21 -55 10
-60 28 -68 67 -31 39 37 52 40 44 10 -7 -26 8 -58 27 -58 8 0 27 20 42 44 25
39 31 43 65 42 21 0 41 3 45 7 21 21 -102 177 -141 177 -16 0 -13 -7 22 -38z"/>
<path d="M2650 5501 c0 -5 7 -12 16 -15 24 -9 28 -7 14 9 -14 17 -30 20 -30 6z"/>
<path d="M5550 5432 c0 -5 13 -24 29 -41 25 -27 36 -31 81 -31 l51 0 -7 -45
c-4 -29 -3 -45 4 -45 6 0 17 -3 26 -6 9 -4 16 -1 16 6 0 6 -9 14 -20 17 -22 6
-27 19 -8 25 21 7 -14 63 -42 66 -51 5 -69 13 -99 38 -17 14 -31 21 -31 16z"/>
<path d="M5300 5395 c0 -16 5 -19 53 -30 36 -8 77 -48 77 -76 0 -11 -9 -34
-21 -50 -15 -22 -17 -29 -6 -29 24 0 47 35 47 71 0 40 -26 84 -66 110 -36 23
-84 25 -84 4z"/>
<path d="M5454 5355 c3 -16 8 -47 12 -67 9 -52 24 -48 24 6 0 30 -7 51 -20 67
l-21 24 5 -30z"/>
<path d="M2736 5317 c-17 -13 -13 -15 52 -19 86 -6 139 -36 166 -93 22 -45 15
-54 -20 -26 -35 28 -50 27 -67 -4 l-13 -26 -19 21 c-11 12 -31 20 -49 20 -41
0 -106 -44 -106 -71 0 -19 3 -19 34 9 56 49 74 50 114 7 37 -40 37 -40 68 11
12 21 32 12 44 -22 6 -14 18 -24 30 -24 17 0 20 6 20 43 -1 91 -80 172 -180
183 -40 4 -60 2 -74 -9z"/>
<path d="M5305 5289 c-9 -17 -14 -33 -12 -36 9 -8 67 27 67 41 0 12 -20 26
-36 26 -2 0 -11 -14 -19 -31z"/>
<path d="M5590 5278 c-24 -39 -34 -89 -26 -122 6 -24 30 -36 77 -36 39 0 56
-38 35 -79 -16 -31 -16 -31 9 -31 35 0 42 37 16 88 -18 35 -26 41 -58 44 -51
4 -71 40 -49 92 13 30 41 56 61 56 4 0 4 -12 1 -26 -5 -19 -3 -25 6 -22 18 6
23 49 6 59 -28 18 -58 9 -78 -23z"/>
<path d="M6697 5283 c-25 -25 -30 -26 -67 -17 -50 14 -62 2 -53 -51 l6 -38
-49 6 -49 7 35 -18 c50 -27 76 -10 73 48 -2 39 -1 42 20 35 44 -15 89 -9 108
14 17 21 20 21 48 7 17 -9 46 -16 66 -16 25 0 43 -7 59 -25 13 -13 42 -33 66
-44 l42 -19 55 29 c30 16 61 29 69 29 8 0 14 3 14 8 0 4 -15 7 -32 7 -22 0
-39 -8 -51 -22 -36 -45 -133 -20 -158 39 -12 29 -28 34 -58 19 -12 -7 -30 -4
-60 10 -54 24 -51 24 -84 -8z"/>
<path d="M3760 5272 c0 -8 128 -62 145 -62 4 0 1 7 -6 17 -28 33 -139 69 -139
45z"/>
<path d="M6885 5190 c-3 -6 1 -13 9 -16 20 -8 20 -23 -1 -46 -24 -26 6 -25 35
2 28 26 28 34 -3 54 -29 19 -32 19 -40 6z"/>
<path d="M6410 5150 c-38 -38 -18 -62 20 -25 17 16 33 23 43 19 18 -7 67 -85
67 -107 0 -19 -48 -31 -64 -17 -19 15 -71 -6 -91 -36 -13 -21 -23 -24 -74 -24
-43 0 -60 -4 -65 -15 -3 -8 -2 -15 2 -15 4 0 18 -9 32 -20 21 -17 23 -21 10
-30 -8 -5 -31 -10 -51 -10 -27 0 -48 -10 -82 -37 -46 -37 -51 -53 -18 -53 10
0 26 -9 36 -20 24 -26 35 -25 35 3 0 31 -9 38 -31 26 -26 -14 -25 10 2 45 16
21 29 26 63 26 23 0 51 7 62 15 19 15 18 16 -8 38 -39 32 -35 41 18 33 44 -6
49 -4 78 27 27 29 37 33 69 29 46 -5 97 14 97 37 0 34 -83 131 -112 131 -10 0
-27 -9 -38 -20z"/>
<path d="M7126 5155 c-17 -44 8 -145 36 -145 12 0 10 9 -12 38 -16 22 -18 34
-11 63 9 39 -1 74 -13 44z"/>
<path d="M6580 5124 c0 -3 14 -10 30 -15 17 -6 30 -17 30 -25 0 -8 5 -14 10
-14 14 0 12 12 -6 38 -13 19 -64 32 -64 16z"/>
<path d="M6896 5059 c19 -21 19 -21 -8 -42 -23 -19 -25 -24 -14 -39 12 -17 14
-17 29 0 29 32 38 70 21 87 -9 8 -23 15 -31 15 -14 0 -13 -3 3 -21z"/>
<path d="M2670 5041 c8 -5 40 -12 70 -16 46 -6 61 -14 93 -47 28 -29 41 -37
53 -30 13 7 8 16 -30 49 -34 30 -57 42 -92 47 -68 9 -113 7 -94 -3z"/>
<path d="M6815 4950 c-33 -64 -7 -125 52 -118 l28 3 -37 22 c-45 26 -48 44
-11 71 17 13 24 25 20 36 -10 25 -35 19 -52 -14z"/>
<path d="M7270 4963 c0 -5 7 -18 15 -29 12 -16 14 -16 15 -3 0 9 -7 22 -15 29
-8 7 -15 8 -15 3z"/>
<path d="M6456 4922 c-3 -5 7 -7 23 -4 30 4 65 -24 40 -32 -8 -3 -31 -10 -51
-16 -21 -6 -38 -16 -38 -22 0 -6 6 -8 13 -5 104 41 112 48 85 75 -14 14 -64
16 -72 4z"/>
<path d="M6946 4834 c-3 -8 -6 -25 -6 -36 0 -18 4 -19 40 -13 30 5 47 2 66
-10 14 -9 29 -14 32 -10 13 13 -16 39 -56 51 -24 6 -49 17 -56 23 -10 9 -15 8
-20 -5z"/>
<path d="M6266 4817 c-24 -17 -19 -90 7 -95 25 -5 33 26 11 43 -19 15 -19 15
0 30 11 8 35 15 53 15 28 0 36 -5 47 -30 7 -17 15 -27 19 -23 13 12 7 32 -15
53 -25 23 -94 27 -122 7z"/>
<path d="M6545 4810 c-37 -14 -49 -37 -36 -66 11 -26 11 -26 -16 -19 -27 8
-57 8 -97 1 -18 -2 -37 -22 -57 -59 -9 -16 -8 -17 9 -8 16 8 21 7 26 -5 4 -9
-2 -18 -16 -23 l-22 -8 22 -12 c26 -14 62 0 62 24 0 8 -9 20 -20 27 -51 32 7
55 111 45 46 -5 57 -4 53 7 -3 7 -16 19 -29 26 -28 15 -24 33 11 49 55 25 134
8 134 -29 0 -13 9 -22 25 -26 28 -7 31 -14 13 -32 -9 -9 -7 -12 10 -12 38 0
38 28 1 67 -19 19 -46 41 -61 49 -29 15 -91 18 -123 4z"/>
<path d="M6843 4776 c-27 -24 -28 -24 -9 -45 11 -12 36 -26 58 -31 l38 -11
-16 -30 c-25 -49 -10 -57 19 -9 27 45 27 60 1 60 -8 0 -31 7 -51 15 -29 12
-33 18 -23 30 8 9 22 12 41 8 33 -6 38 3 12 23 -25 19 -38 17 -70 -10z"/>
<path d="M6630 4650 c0 -17 3 -19 19 -10 32 16 34 30 7 30 -19 0 -26 -5 -26
-20z"/>
<path d="M6712 4656 c15 -14 131 -9 122 5 -3 5 -35 9 -70 8 -52 -1 -63 -4 -52
-13z"/>
<path d="M6994 4651 c7 -11 86 -31 125 -31 45 0 38 16 -13 29 -53 13 -119 15
-112 2z"/>
<path d="M7686 4631 c-4 -7 -5 -15 -2 -18 9 -9 19 4 14 18 -4 11 -6 11 -12 0z"/>
<path d="M6770 4620 c-12 -8 -10 -10 10 -10 14 0 35 -3 46 -6 14 -4 23 0 27
10 5 13 -1 16 -31 16 -20 0 -44 -5 -52 -10z"/>
<path d="M5192 4556 c80 -14 90 -22 80 -61 -11 -41 -25 -41 -70 -1 -62 57
-114 48 -128 -21 -6 -28 -3 -32 31 -43 42 -14 61 -6 21 10 -22 8 -27 15 -24
37 6 51 74 43 104 -12 15 -29 24 -35 51 -35 36 0 58 26 42 51 -5 7 -9 25 -9
40 0 40 -18 49 -94 48 l-71 -1 67 -12z"/>
<path d="M6360 4413 c-38 -5 -70 -28 -70 -50 0 -17 11 -17 36 2 10 8 36 19 57
25 34 10 54 32 25 28 -7 0 -29 -3 -48 -5z"/>
<path d="M5255 4390 c3 -5 8 -10 11 -10 2 0 4 5 4 10 0 6 -5 10 -11 10 -5 0
-7 -4 -4 -10z"/>
<path d="M5206 4368 c-15 -20 -16 -21 -34 -5 -24 22 -78 22 -86 1 -5 -13 0
-15 32 -9 35 6 41 3 57 -21 l17 -27 24 26 c26 28 30 42 15 52 -5 3 -17 -5 -25
-17z"/>
<path d="M5390 4134 c0 -8 5 -12 10 -9 6 4 8 11 5 16 -9 14 -15 11 -15 -7z"/>
<path d="M5751 4075 c71 -52 95 -65 117 -65 19 0 21 3 13 19 -8 14 -7 22 4 31
15 12 21 40 9 40 -3 0 -21 -7 -39 -16 -30 -14 -36 -14 -64 0 -16 9 -40 16 -52
16 -19 0 -18 -3 12 -25z"/>
<path d="M7509 3739 c-59 -44 -219 -142 -344 -210 -93 -51 -80 -65 19 -20 152
69 406 244 385 265 -3 3 -30 -12 -60 -35z"/>
<path d="M7405 3594 c-104 -68 -204 -113 -302 -136 -87 -21 -113 -32 -113 -49
0 -37 267 51 386 126 62 39 114 83 114 97 0 14 -14 8 -85 -38z"/>
<path d="M894 3595 c-4 -8 -3 -31 1 -51 5 -30 2 -41 -16 -60 -12 -13 -20 -26
-17 -29 2 -3 19 15 36 39 27 38 37 44 65 44 17 -1 47 2 65 7 28 6 32 5 32 -12
0 -10 -7 -28 -15 -40 -10 -15 -12 -24 -4 -28 13 -9 14 -9 30 45 12 38 18 45
39 43 20 -1 17 2 -15 17 -53 26 -62 25 -89 -7 -21 -24 -26 -26 -50 -15 -18 8
-26 19 -26 37 0 28 -27 35 -36 10z"/>
<path d="M6520 3598 c0 -7 9 -24 19 -37 l18 -24 7 27 c4 15 4 31 1 36 -9 14
-45 12 -45 -2z"/>
<path d="M937 3459 c-9 -6 -17 -20 -17 -31 l0 -21 24 22 23 22 17 -25 c21 -33
21 -35 -14 -101 -36 -69 -37 -83 -6 -91 27 -7 40 -39 25 -66 -7 -13 -21 -18
-49 -18 -45 0 -63 -21 -52 -61 6 -24 6 -23 12 5 5 29 15 35 83 50 23 5 27 11
27 41 0 50 -18 84 -41 78 -25 -7 -17 18 22 69 33 42 34 49 14 88 -19 37 -45
52 -68 39z"/>
<path d="M870 3415 c7 -8 17 -15 22 -15 6 0 5 7 -2 15 -7 8 -17 15 -22 15 -6
0 -5 -7 2 -15z"/>
<path d="M1110 3367 c-22 -11 -25 -19 -24 -65 1 -29 -3 -52 -8 -52 -4 0 -17
15 -28 33 -12 18 -20 25 -20 16 0 -22 38 -69 55 -69 23 0 27 18 14 55 -12 33
-11 37 12 61 l26 25 30 -25 c35 -30 43 -32 43 -12 0 17 -38 46 -60 46 -8 0
-26 -6 -40 -13z"/>
<path d="M1238 3373 c7 -3 16 -2 19 1 4 3 -2 6 -13 5 -11 0 -14 -3 -6 -6z"/>
<path d="M1298 3348 c7 -7 12 -20 12 -30 0 -10 5 -18 10 -18 13 0 13 3 -2 35
-6 14 -16 25 -22 25 -6 0 -5 -5 2 -12z"/>
<path d="M1170 3293 c0 -40 22 -92 54 -129 l33 -39 -10 63 c-9 58 -11 61 -33
56 -15 -4 -24 -2 -24 5 0 6 12 11 26 11 17 0 28 6 31 19 3 11 12 22 22 24 9 3
-10 5 -41 6 -49 1 -58 -2 -58 -16z"/>
<path d="M5266 3141 c-10 -16 5 -41 26 -41 14 0 19 6 16 22 -3 24 -32 36 -42
19z"/>
<path d="M927 3070 c-3 -12 -10 -19 -16 -15 -7 3 -8 0 -5 -9 8 -20 23 -20 30
-1 8 20 34 19 48 -1 7 -9 18 -12 29 -8 28 10 19 31 -15 36 -18 3 -40 8 -49 12
-12 5 -18 1 -22 -14z"/>
<path d="M7663 3003 c9 -2 23 -2 30 0 6 3 -1 5 -18 5 -16 0 -22 -2 -12 -5z"/>
<path d="M7567 2953 c-12 -12 -7 -33 8 -33 17 0 19 9 7 28 -5 7 -11 9 -15 5z"/>
<path d="M7740 2945 c7 -8 10 -21 7 -29 -6 -16 30 -30 39 -15 8 14 -24 59 -42
59 -13 0 -14 -3 -4 -15z"/>
<path d="M7373 2907 c-12 -7 -34 -28 -48 -47 -20 -28 -34 -36 -67 -40 -57 -7
-63 -30 -8 -30 33 0 50 -7 77 -30 25 -22 44 -30 71 -30 52 0 77 -19 68 -53 -3
-14 -15 -28 -25 -32 -11 -3 -22 -19 -26 -35 -10 -44 -20 -36 -20 13 0 60 -19
80 -64 72 -52 -10 -88 -35 -124 -90 -33 -50 -63 -73 -50 -38 6 17 6 17 -15 0
-26 -23 -47 -77 -30 -77 7 0 24 12 39 26 26 25 31 26 59 14 40 -16 40 -40 0
-40 -34 0 -79 -20 -99 -43 -10 -13 -8 -17 10 -22 17 -6 27 0 46 23 21 27 27
30 49 22 14 -6 32 -10 40 -10 24 0 15 40 -16 72 -38 37 -37 49 0 92 42 47 92
64 127 41 22 -15 25 -22 19 -56 -7 -44 12 -62 40 -38 21 17 54 93 54 124 0 31
-35 55 -81 55 -29 0 -43 6 -58 26 -28 35 -27 46 8 83 39 41 75 42 96 1 18 -35
33 -37 68 -10 14 11 36 20 50 20 13 0 32 -9 42 -20 30 -33 61 -19 37 16 -11
17 -111 17 -136 0 -21 -13 -24 -12 -50 20 -29 36 -47 41 -83 21z"/>
<path d="M1548 2740 c40 -18 62 -44 49 -57 -4 -3 -22 2 -41 11 -32 15 -38 15
-66 1 -30 -16 -47 -52 -36 -80 7 -18 -15 -20 -33 -2 -11 10 -13 9 -7 -6 3 -10
6 -20 6 -21 0 -2 25 -1 55 2 40 3 62 0 80 -12 38 -25 32 -39 -15 -31 -53 9
-90 -13 -90 -54 l0 -29 -47 14 c-58 18 -90 11 -105 -21 -16 -36 -38 -32 -38 6
0 27 -2 30 -15 19 -24 -20 -14 -52 20 -69 17 -9 41 -22 54 -29 l24 -14 -29
-24 c-26 -20 -27 -23 -9 -24 11 0 33 7 49 15 38 20 39 19 33 -11 -3 -20 1 -27
20 -35 13 -5 38 -9 54 -9 18 0 29 -5 29 -14 0 -15 -21 -26 -51 -26 -16 0 -19
-7 -19 -44 0 -37 -4 -45 -22 -50 -15 -3 -19 -9 -13 -15 6 -6 20 -8 33 -5 18 5
22 13 22 50 0 24 2 44 5 44 2 0 40 -24 83 -54 44 -30 93 -57 109 -60 29 -7
240 -202 230 -213 -11 -11 -47 10 -86 49 -23 22 -41 36 -41 31 0 -23 114 -116
176 -144 75 -34 98 -30 58 12 -43 45 -20 46 43 2 112 -78 238 -141 397 -197
18 -6 17 -9 -12 -26 -40 -24 -48 -44 -34 -76 14 -30 40 -31 44 -1 2 17 11 23
37 25 62 6 121 -18 183 -75 43 -39 65 -53 88 -53 16 0 30 5 30 10 0 6 -4 10
-10 10 -16 0 -51 43 -41 53 5 5 25 2 46 -7 28 -12 41 -13 51 -5 23 19 80 1
158 -51 81 -55 88 -57 106 -35 18 22 50 18 92 -10 34 -23 55 -23 40 2 -10 15
-61 39 -99 46 -22 4 -33 2 -37 -8 -9 -24 -36 -18 -74 16 -50 44 -112 70 -178
73 -48 2 -59 7 -85 35 -19 21 -37 31 -51 29 -28 -4 -36 -28 -9 -28 11 0 25 -9
31 -20 9 -16 8 -20 -5 -20 -11 0 -14 -6 -9 -25 8 -34 1 -32 -50 15 -73 67
-141 85 -211 56 -19 -8 -35 -11 -35 -7 0 19 43 44 84 48 26 3 52 13 62 24 10
11 31 19 48 19 58 0 63 15 16 49 -51 36 -57 38 -65 11 -8 -25 -17 -25 -39 -1
-10 11 -14 25 -10 36 6 14 15 16 57 11 56 -8 87 10 87 49 0 42 -63 75 -76 40
-5 -12 -9 -13 -21 -3 -13 10 -13 14 3 25 26 19 72 16 104 -7 43 -31 87 -36
111 -14 28 25 49 67 49 97 0 29 -39 67 -68 67 -13 0 -22 6 -22 15 0 8 -14 22
-32 31 -46 24 -124 100 -139 136 -11 27 -10 32 6 44 24 18 37 18 81 -1 23 -9
39 -26 49 -48 27 -65 67 -74 80 -18 5 25 12 31 31 31 30 0 60 -14 92 -43 17
-16 25 -18 34 -9 7 7 17 8 30 1 27 -14 23 7 -8 48 -20 27 -23 37 -14 48 14 16
5 35 -16 35 -23 0 -27 -26 -9 -54 9 -14 15 -32 13 -41 -2 -13 -10 -11 -43 14
-29 22 -51 31 -82 31 -38 0 -42 -2 -48 -30 -8 -35 -25 -50 -25 -21 0 28 -55
79 -99 91 -46 12 -97 -3 -106 -31 -4 -11 -3 -33 0 -50 l7 -31 -48 26 c-50 27
-70 31 -99 20 -12 -5 -13 -9 -5 -14 10 -6 10 -16 0 -45 -25 -75 4 -171 87
-286 19 -27 33 -52 31 -54 -7 -7 -129 97 -177 151 -24 27 -64 84 -89 127 -25
43 -49 80 -54 83 -38 24 53 -139 127 -224 45 -52 128 -129 180 -166 28 -20 11
-32 -22 -15 -15 8 -100 87 -191 177 -90 89 -168 162 -173 162 -21 0 -49 -21
-49 -38 0 -28 45 -116 80 -155 18 -21 30 -41 26 -44 -9 -10 -62 43 -125 127
-31 41 -62 75 -69 75 -25 0 -102 138 -102 183 0 35 16 52 50 52 33 0 75 -26
133 -84 33 -34 47 -42 47 -30 0 28 -100 120 -145 134 -50 14 -90 1 -107 -35
-29 -65 57 -228 198 -372 49 -51 87 -93 84 -93 -11 0 -91 60 -157 117 -66 58
-88 51 -27 -8 24 -23 33 -40 30 -53 -3 -11 0 -28 6 -39 10 -20 10 -20 -23 -1
-19 11 -34 27 -34 35 0 7 -12 32 -26 55 -15 22 -43 71 -62 110 -19 38 -51 85
-71 103 -23 22 -34 41 -31 51 4 11 -14 35 -53 72 -61 58 -112 78 -202 78 -54
0 -70 8 -70 36 0 22 4 24 56 24 l56 0 -7 49 c-6 44 -5 50 14 56 12 3 36 5 54
4 39 -4 57 6 57 30 0 24 -22 42 -74 61 -48 18 -58 45 -23 61 19 9 31 7 57 -6
65 -34 83 13 25 64 -20 17 -46 31 -58 31 -16 0 -10 -6 21 -20z m890 -728 c4
-24 -7 -29 -26 -10 -18 18 -15 40 6 36 9 -2 18 -13 20 -26z"/>
<path d="M1840 2680 c0 -5 17 -14 38 -20 47 -16 63 -30 33 -30 -12 0 -31 -4
-41 -10 -18 -10 -40 -59 -40 -91 0 -24 26 -25 38 -2 9 15 16 16 62 5 70 -16
75 -16 88 13 6 14 23 27 39 31 15 4 44 16 64 26 55 30 65 20 30 -32 -36 -52
-39 -75 -12 -90 37 -19 72 -11 112 25 22 19 45 35 53 35 17 0 41 -28 32 -37
-4 -4 -11 -1 -17 7 -8 13 -13 11 -30 -10 l-21 -25 32 -3 c43 -4 81 29 64 56
-6 9 -25 21 -42 26 -26 7 -38 4 -78 -23 -54 -35 -54 -35 -78 -18 -23 17 -11
47 20 47 19 0 24 5 24 26 0 32 -17 64 -33 64 -7 0 -34 -12 -62 -25 -27 -14
-55 -25 -61 -25 -6 0 -23 -11 -38 -25 -33 -31 -46 -31 -99 -2 l-42 22 43 3
c47 3 57 26 24 55 -19 18 -102 39 -102 27z"/>
<path d="M2818 2552 c34 -32 62 -63 62 -70 0 -16 -11 -15 -39 4 -36 26 -50 2
-17 -31 41 -41 86 -18 72 38 -5 23 -113 117 -133 117 -4 0 20 -26 55 -58z"/>
<path d="M2610 2465 c0 -47 23 -55 58 -22 32 29 62 40 80 28 8 -5 22 -34 33
-66 18 -55 18 -60 2 -77 -25 -28 -8 -33 31 -9 32 20 37 21 70 7 36 -15 57 -42
49 -63 -5 -15 6 -17 26 -4 35 22 -33 89 -99 98 -37 5 -39 8 -50 54 -13 53 -47
89 -85 89 -12 0 -39 -11 -59 -25 l-36 -24 0 24 c0 14 -4 25 -10 25 -5 0 -10
-16 -10 -35z"/>
<path d="M2388 2440 c36 -22 47 -42 38 -66 -5 -14 -9 -12 -25 7 -18 22 -22 23
-42 10 -20 -12 -24 -11 -39 9 -16 22 -54 31 -120 30 -65 -1 -111 -82 -94 -166
13 -70 32 -68 36 3 l3 58 40 -1 c22 -1 51 -5 64 -9 43 -15 19 18 -34 45 l-49
24 34 9 c50 13 99 1 112 -29 13 -27 30 -31 48 -9 18 22 30 18 30 -9 0 -57 31
-34 65 47 l16 38 -35 14 c-20 8 -46 15 -58 15 -21 0 -20 -2 10 -20z"/>
<path d="M3332 2405 c2 -29 8 -41 21 -43 22 -4 22 10 -3 50 l-21 33 3 -40z"/>
<path d="M7181 2384 c5 -15 7 -36 3 -47 -6 -19 -8 -17 -18 13 -11 34 -13 35
-56 32 -53 -3 -70 -16 -70 -51 0 -28 10 -44 48 -75 l22 -19 -15 36 c-19 47
-19 83 1 91 26 10 31 7 53 -29 23 -40 36 -44 51 -15 12 23 -3 90 -21 90 -5 0
-4 -12 2 -26z"/>
<path d="M5558 2353 c-23 -6 -28 -26 -14 -54 17 -35 54 -37 62 -5 9 36 20 33
49 -15 29 -45 43 -43 65 11 10 25 18 30 46 30 52 0 62 -29 29 -86 -30 -51 -19
-58 19 -13 34 40 34 81 0 108 -45 36 -85 24 -115 -32 -11 -20 -12 -19 -29 13
-23 44 -58 58 -112 43z"/>
<path d="M1150 2324 c-37 -32 -32 -45 6 -15 34 26 54 27 88 0 20 -16 26 -17
26 -6 0 18 -42 47 -69 47 -11 0 -34 -12 -51 -26z"/>
<path d="M1310 2288 c0 -7 13 -21 30 -30 16 -9 32 -28 36 -42 7 -30 24 -35 24
-7 0 10 -18 35 -40 55 -44 39 -50 42 -50 24z"/>
<path d="M3276 2240 c-26 -22 -52 -40 -57 -40 -5 0 -9 -4 -9 -10 0 -23 42 -7
87 31 26 23 50 46 51 50 8 21 -27 5 -72 -31z"/>
<path d="M1137 2254 c-10 -11 3 -24 23 -24 13 0 17 5 14 15 -6 15 -26 20 -37
9z"/>
<path d="M3450 2230 c0 -11 42 -31 49 -24 2 2 -2 10 -9 19 -14 17 -40 20 -40
5z"/>
<path d="M3520 2215 c0 -14 5 -25 11 -25 7 0 17 -8 24 -17 14 -19 106 -45 118
-33 16 14 -4 50 -35 66 -30 16 -31 15 -25 -5 8 -33 -28 -27 -55 9 -27 37 -38
38 -38 5z"/>
<path d="M6826 2231 c-4 -6 6 -17 23 -25 31 -17 46 -54 35 -89 -4 -12 -36 -53
-70 -92 -76 -82 -85 -110 -14 -40 57 56 64 50 20 -17 -45 -68 -179 -192 -274
-253 -192 -124 -369 -194 -541 -215 -44 -5 -109 -14 -145 -20 -197 -31 -586 2
-719 61 -53 23 -57 24 -40 2 13 -15 11 -16 -23 -10 -60 9 -233 75 -406 153
-214 98 -294 129 -389 153 -97 24 -176 32 -227 23 l-39 -7 84 -59 c135 -96
151 -108 145 -113 -9 -9 -79 19 -234 94 -84 40 -194 85 -245 99 -50 14 -103
30 -117 36 -24 11 -23 12 25 23 l50 12 -38 17 c-35 16 -136 42 -203 53 -32 5
-57 -13 -36 -26 6 -4 18 -23 27 -44 8 -20 27 -44 41 -54 23 -15 24 -18 10 -28
-24 -18 -20 -30 29 -73 25 -22 45 -42 45 -44 0 -3 -11 -3 -24 -1 -16 3 -31 -2
-45 -16 -26 -26 -31 -26 -31 -1 0 30 -19 63 -47 84 -25 18 -28 19 -55 3 -25
-15 -58 -23 -58 -14 0 1 9 29 19 62 19 59 20 60 53 57 32 -2 32 -2 12 12 -11
8 -39 22 -62 31 -46 19 -56 34 -42 71 19 48 3 65 -18 19 -20 -44 -14 -77 20
-112 26 -27 30 -37 22 -51 -16 -24 -40 -26 -88 -8 -47 19 -91 72 -135 163 -16
32 -36 65 -45 72 -14 12 -16 10 -16 -11 0 -14 5 -39 11 -56 6 -17 9 -41 7 -54
-3 -20 -9 -16 -64 40 -34 34 -66 62 -71 62 -23 0 -20 -15 7 -47 17 -19 28 -38
25 -42 -6 -11 -72 -21 -91 -14 -8 3 -14 13 -14 23 0 10 -8 28 -18 40 -29 36
-140 28 -118 -9 5 -7 14 -7 31 1 36 16 75 -3 75 -37 0 -18 9 -29 38 -44 25
-13 43 -16 53 -10 24 15 55 10 77 -14 32 -34 29 -48 -7 -34 -37 14 -61 -3 -61
-43 0 -40 27 -57 96 -62 72 -5 162 -45 377 -170 78 -45 210 -117 292 -160 83
-42 143 -78 135 -79 -41 -4 -81 5 -143 32 -117 51 -388 156 -501 193 -154 51
-226 47 -273 -14 -9 -12 -8 -19 4 -32 9 -10 22 -18 28 -18 7 0 29 -11 50 -25
29 -20 56 -28 130 -35 102 -9 124 -17 152 -55 21 -29 83 -42 338 -72 214 -24
688 -24 875 1 184 24 352 58 499 101 122 35 123 35 181 20 203 -53 517 -70
720 -41 300 44 546 146 754 312 154 123 245 250 262 362 8 53 16 62 59 62 75
0 91 -21 58 -79 -24 -41 -8 -59 34 -38 32 17 61 47 45 47 -5 0 -15 -7 -22 -15
-7 -8 -21 -15 -32 -15 -19 0 -19 1 -4 25 25 38 20 62 -16 81 -22 11 -45 15
-78 11 -31 -4 -54 -1 -66 7 -29 20 -62 28 -68 17z m-3276 -275 c0 -8 -7 -17
-16 -20 -23 -9 -24 -8 -24 14 0 13 7 20 20 20 11 0 20 -6 20 -14z m333 -209
c18 -8 38 -21 45 -30 11 -13 10 -17 -5 -26 -32 -20 59 -90 220 -170 l142 -71
-100 6 c-181 11 -360 72 -454 154 -79 68 -96 109 -32 76 46 -24 61 -21 61 14
0 22 7 33 28 44 34 19 54 20 95 3z m-293 -47 c0 -5 -7 -10 -15 -10 -8 0 -18 0
-22 -1 -4 0 -9 4 -11 10 -2 6 8 11 22 11 14 0 26 -4 26 -10z m800 -100 c0 -5
-4 -10 -10 -10 -5 0 -10 5 -10 10 0 6 5 10 10 10 6 0 10 -4 10 -10z m-2 -82
c-3 -7 -11 -13 -18 -13 -7 0 -15 6 -17 13 -3 7 4 12 17 12 13 0 20 -5 18 -12z"/>
<path d="M3813 1733 c-9 -3 -10 -10 -3 -24 11 -19 70 -28 70 -10 0 18 -46 41
-67 34z"/>
<path d="M3797 1643 c-15 -14 -5 -32 28 -52 30 -17 39 -19 55 -8 25 15 25 22
0 47 -19 19 -69 27 -83 13z"/>
<path d="M7195 2196 c-10 -7 -27 -11 -37 -8 -26 6 -49 -5 -42 -22 4 -10 16
-12 43 -9 51 7 77 -9 85 -52 8 -40 28 -54 51 -35 27 22 18 69 -19 106 -37 37
-53 41 -81 20z m75 -26 c20 -20 28 -80 10 -80 -5 0 -16 15 -24 34 -8 18 -24
41 -37 50 l-23 16 27 0 c15 0 36 -9 47 -20z"/>
<path d="M6682 2184 c-27 -19 -28 -41 -2 -49 11 -3 20 -10 20 -15 0 -13 -23
-18 -46 -9 -29 10 -49 -26 -40 -74 9 -46 58 -100 88 -95 44 6 96 119 84 182
-7 35 -42 76 -66 76 -8 0 -26 -7 -38 -16z"/>
<path d="M3271 2161 c-11 -20 -10 -26 10 -47 12 -13 26 -24 31 -24 15 0 8 48
-11 71 l-18 23 -12 -23z"/>
<path d="M3496 2125 c-21 -8 -42 -12 -48 -9 -26 16 -94 -68 -82 -100 9 -22 24
-20 24 3 0 11 14 31 31 45 26 22 34 24 46 14 12 -10 18 -8 31 9 10 12 30 23
45 25 15 2 29 8 30 13 3 16 -34 15 -77 0z"/>
<path d="M1563 2045 c6 -18 55 -29 84 -19 47 16 36 29 -27 29 -36 0 -59 -4
-57 -10z"/>
<path d="M6350 1833 c-8 -3 -60 -23 -115 -45 -149 -60 -259 -96 -348 -113 -88
-17 -99 -22 -77 -35 22 -14 12 -17 -90 -27 l-95 -9 45 -13 c74 -22 341 -9 461
22 176 46 278 113 279 184 0 18 -28 46 -42 42 -2 0 -10 -3 -18 -6z"/>
<path d="M5415 1591 c-6 -10 133 -45 240 -60 117 -17 147 -11 40 9 -55 9 -125
24 -155 33 -79 22 -118 28 -125 18z"/>
<path d="M3189 1469 c-11 -7 -10 -12 8 -30 24 -24 73 -20 73 6 0 8 -1 15 -3
15 -1 0 -16 4 -33 9 -18 5 -37 5 -45 0z"/>
</g>
</svg>
